<svg xmlns="http://www.w3.org/2000/svg" width="1080" viewBox="0 0 810 810" height="1080" version="1.0"><path fill="#f8a491" d="m450.836 389.59-3.45 9.664-3.324 10.25-3.082 10.68-2.882 10.949c-3.868 14.73-7.29 29.93-10.407 45.297-3.078 15.379-6.105 30.914-8.722 46.535-1.348 7.8-2.668 15.625-3.871 23.418-1.211 7.746-2.41 15.742-3.25 22.758-.246 1.754-.434 3.691-.633 5.605l-.586 5.75-1.027 11.781-1.817 23.926-3.234 48.336c-1.059 16.152-2.317 68.332-3.223 77.047-1.25 12.074-1.77 20.828-3.473 32.848-.128.937-2.398 2.629-3.054 3.316-.578.605-1.426.852-2.238 1.05-6.852 1.708-13.961 1.821-20.965 1.786-1.344-.004-2.735-.024-3.953-.594-2.946-1.367-3.633-5.168-3.97-8.39-1.902-18.204-12.863-89.07-14.3-106.66-1.328-16.34-2.379-32.7-3.34-49.153-.48-8.234-.86-16.488-1.191-24.812l-.422-12.579-.117-6.43c-.043-2.148-.09-4.269-.063-6.566l.043-6.738.176-6.457.465-12.625c.344-8.379.8-16.707 1.285-25.047 1.121-16.664 2.402-33.34 4.309-50.074 1.882-16.734 4.12-33.547 7.02-50.602 3.132-17.046 6.597-34.25 12.538-52.546 7.305-22.477 31.442-34.778 53.918-27.473 22.477 7.308 34.774 31.45 27.473 53.93-.106.332-.219.66-.336.984l-.297.836"/><path fill="#f8a491" d="m502.742 360.313 1.817 13.109 1.554 13.074c.946 8.703 1.934 17.371 2.64 26.05a1681.141 1681.141 0 0 1 3.575 51.911c.8 17.3 1.445 34.559 1.637 51.938l.105 13.082.004 6.586-.008 3.304-.011.438-.032.101-.046.364c-.043.609.023 1.683.203 2.957.156 1.246.437 2.718.754 4.242.664 3.09 1.578 6.496 2.636 10.004 2.117 7.03 4.782 14.453 7.633 21.918 2.836 7.488 5.914 15.058 9.09 22.652 7.59 18.11 15.039 35.973 25.242 52.723 10.05 16.511 17.871 36.015 25.274 55.437 6.718 17.617 19.043 41.543 13.156 45.629-3.809 2.645-19.082 13.543-23.899 11.746-2.3-.855-4.367-2.637-5.375-4.871-8.304-18.45-15.675-28.027-25.785-43.082-5.02-7.48-31.23-38.512-36.183-46.633-8.887-14.605-17.739-29.347-26.227-44.586-8.527-15.3-16.855-30.718-24.34-48.336-1.867-4.437-3.676-9.054-5.37-14.101-.84-2.547-1.661-5.164-2.415-8.055a88.422 88.422 0 0 1-1.996-9.543l-1.754-14.555-1.61-12.27c-2.273-16.405-4.644-32.886-7.257-49.288-2.512-16.418-5.188-32.79-8.145-49.028l-4.43-24.261-4.734-23.977-.101-.515c-4.574-23.196 10.515-45.715 33.707-50.293 23.191-4.579 45.703 10.515 50.281 33.714.156.758.3 1.657.41 2.414M372.754 227.945l-4.277 110.207-.204 4.325a61.292 61.292 0 0 1-.558 4.664 101.191 101.191 0 0 1-1.613 7.968c-1.2 4.993-2.551 9.657-3.957 14.239-2.82 9.148-5.86 17.953-8.93 26.703-6.117 17.465-12.508 34.672-18.012 51.715l-.027.078c-2.207 6.844-9.543 10.594-16.387 8.386-6.535-2.117-10.242-8.957-8.625-15.53 4.547-18.302 9.766-35.962 14.594-53.56 2.414-8.777 4.765-17.53 6.773-26.109 1-4.277 1.903-8.523 2.57-12.523.34-2 .594-3.926.731-5.602.082-.86.094-1.574.102-2.191l-.102-2.563-4.277-110.207c-.453-11.656 8.625-21.468 20.277-21.922 11.652-.453 21.469 8.625 21.922 20.282.02.535.016 1.117 0 1.64"/><path fill="#c67a6f" d="M451.71 386.191c-4.26 13.747-8.214 28.72-11.624 43.868-3.606 15.152-6.867 30.605-9.89 46.18-2.981 15.57-5.993 31.25-8.653 46.976-1.375 7.863-2.73 15.734-3.996 23.59a1087.073 1087.073 0 0 0-3.559 23.265c-5.136 36.485-1.015 84.07.77 120.434a193.963 193.963 0 0 0 3.066 26.293c.863 4.605 4.598 15.238.45 19.07-1.735 1.598-4.25 2.18-6.637 2.696-23.637 5.109-51.61 8.23-75.473 2.996-.945-.211-1.96-.473-2.555-1.18-.57-.68-.617-1.606-.632-2.465-.516-23.41 1.613-58.973 2.527-82.367 1.496-38.426 4-76.805 5.668-115.164.32-8.29.71-16.543 1.152-24.805 1.016-16.504 2.074-33.023 3.727-49.582 1.61-16.562 3.48-33.176 5.832-49.969 1.242-8.375 2.687-16.832 4.222-25.336l2.551-12.875 3.098-13.101c5.469-23.106 30.242-37.754 55.332-32.723 25.09 5.031 41 27.844 35.535 50.95-.2.855-.426 1.69-.68 2.519l-.23.73"/><path fill="#c67a6f" d="M508.512 360.152c7.761 20.008 10.406 44.153 11.402 61.743 1.559 27.53-.68 55.117-2.469 82.632-.847 13.063-1.504 26.496 1.242 39.395 2.454 11.539 8.938 20.785 13.696 31.375 5.293 11.785 11.23 23.312 17.61 34.605 12.616 22.325 36.671 59.34 51.57 80.368 2.195 3.105 4.5 6.48 4.347 10.214-.21 5.325-5.207 9.215-9.762 12.371-14.378 9.95-28.843 19.95-44.796 27.461-4.676 2.204-9.727 4.239-14.946 3.91-.98-.062-1.992-.218-2.8-.746-1.024-.671-1.403-1.894-2.028-2.902-19.855-32.113-36.98-71.394-50.406-101.93-14-31.824-30.266-66.28-36.082-100.57l-14.027-82.625c-3.231-19.023-3.887-37.601-7.547-56.484l-5.012-23.977-.106-.515c-4.855-23.196 11.141-45.715 35.723-50.293 29.004-5.403 45.25 12.414 54.39 35.968"/><path fill="#935c5c" d="M505.852 157.418c-.262-1.254-.707-2.504-1.196-3.672-4.12-10.066-10.492-19.695-16.601-28.656-5.578-8.203-12.012-16.145-14.785-25.672-5.305-18.211 1-37.574-4.336-55.766-9.532-32.539-53.168-43.664-80.196-26.843.227-.145-9.972-3.399-11.379-3.414-3.785-.043-8.011.183-11.656 1.195-9.566 2.664-22.121 9.828-27.172 18.586-6.164 10.699-9.281 23.191-8.894 35.523.336 10.656 3.203 21.188 2.636 31.836-.687 12.988-6.421 24.883-12.343 36.215-4.762 9.11-10.164 17.559-14.957 26.582-4.489 8.453 3.351 11.922 9.703 14.695.281.125.578.246.883.211.34-.047.617-.297.867-.527 5.976-5.645 10.601-12.54 15.172-19.367a340.982 340.982 0 0 0-5.461 21.07c-.203.899-.375 1.941.195 2.668.363.469.953.688 1.512.883 22.64 8.031 46.09 12.765 70.324 11.941 25.262-.98 50.02-6.933 74.398-13.246 3.157-.812 6.778-1.094 8.075-3.93 2.351-5.14-1.973-15.27-3.016-20.52 0 1.696 4.945 6.063 6.055 7.49 1.906 2.452 3.757 4.866 5.836 7.198.476.524.992 1.079 1.68 1.243.812.195 1.644-.2 2.378-.598 2.43-1.313 4.098-2.988 6.14-4.738 1.93-1.645 4.434-2.688 5.673-5.035.863-1.649.863-3.508.465-5.352"/><path fill="#f8a491" d="M453.406 169.8c-3.293 10.126-15.625 35.09-25.746 39.95-10.129 4.863-18.848 5.738-28.656-1.668-5.762-4.344-13.625-12.82-17.82-20.062-2.399-4.11-8.18-8.97-8.704-13.524 6.72-1.605 21.915-2.984 26.504-7.848.582-.605 1.11-1.378 1.547-2.277.977-1.918 1.645-4.379 2.082-7.031l.024-.145.058-.46c1.004-6.407.692-13.61-.035-16.114-.066-.25-.129-.441-.21-.582l-.044-.11-.207-.222 16.301-1.758c.059.356.117.735.16 1.106.38 2.59.567 5.425 1.008 8.289l.023.289c.309 2.152.766 4.297 1.52 6.328 2.797 7.512 9.89 13.375 30.344 11.418.539-.047 1.066.348 1.48.703 1.067.86.79 2.441.371 3.719"/><path fill="#f1947f" d="M421.21 153.953c-2.96 2.586-6.78 4.758-10.41 6.45-3.34 1.546-6.741 2.816-10.269 3.964.98-1.918 1.649-4.383 2.09-7.031l.02-.149.058-.46c1.008-6.407.692-13.606-.035-16.114l16.004-1.566c.375 2.59.566 5.426 1.004 8.289l.02.289c.312 2.152.769 4.305 1.519 6.328"/><path fill="#fcd2ae" d="M359.836 372.828c10.45 3.79 23.453 2.379 34.363 1.75 13.824-.797 27.465-3.285 41.211-4.793 22.16-2.433 44.207-6.66 66.754-5.3 2.191.132 4.598.472 6.516 1.64 1.699 1.035 2.984 3.875 3.668 5.691l.191.297.399.035c2.355-.367 4.19-.836 6.289-2.132 12.351-7.633 6.007-23.008 1.363-31.43-7.219-13.078-19.434-26.941-22.649-41.742-3.695-17.04-3.726-34.66-2.52-51.985.684-9.933.169-52.336-1.433-62.75-2.097-13.058-9.77-13.59-21.484-15.34-7.965-1.183-15.785-1.261-23.774-1.933-.566-.047-1.171-.086-1.664.21-.421.255-.804.673-.89 1.157-1.254 6.727-3.332 14.543-7.457 19.621-7.692 9.492-25.074 11.938-36.524 7.692-9.68-3.594-16.691-10.914-22.832-20.551-.375-.594-1.023-1.028-1.707-1.18-.508-.113-1.035-.008-1.543.098-10.148 2.117-26.523 3.086-30.27 15.097-8.945 28.665-4.476 68.293 13.915 92.575 1.597 2.11 3.344 4.21 4.082 6.75.652 2.25.457 4.644.238 6.972-1.984 20.907-7.379 40.868-12.426 61.254-2.086 8.442-.082 15.301 8.184 18.297"/><path fill="#f8a491" d="M451.816 86.566c1.786-1.105 4.372-.71 5.926.5 1.555 1.211 2.242 3.043 2.543 4.844.617 3.746-.25 7.707-2.422 11.121-1.078 1.692-2.543 3.305-4.539 4.219l-.394.047-.137-.254c-.66-4.441-1.348-8.887-2.012-13.336l1.035-7.14"/><path fill="#f8a491" d="M348.387 94.68c3.625 33.46 20.086 60.695 57.261 56.707 38-4.078 50.489-31.262 47.899-64.82-2.586-33.56-28.3-59.778-57.266-56.7-33.453 3.547-52.894 18.633-47.894 64.813"/><path fill="#935c5c" d="M446.098 93.504c.406.746.96 1.387 1.761 1.535 1.496.277 2.645-1.348 3.036-2.824.468-1.797.695-3.047 2.054-4.313.305-.285 3.73-2.445 3.746-1.28-.093-5.813-.511-11.813-1.64-17.52-1.16-5.5-1.75-10.797-4.285-15.957-5.114-10.407-12.926-19.614-22.88-25.551-9.663-5.762-19.343-.442-30.558-1.348-13.723-1.113-29.957-5.883-42.004 1.36-10.476 6.296-16.14 16.292-17.203 28.335-.918 10.43 2.16 26.067 9.293 34.207 1.098 1.258 18.363-8.546 20.277-9.691 6.336-3.789 13.04-8.648 17.633-14.434 7.352 5.696 14.094 9.829 23.258 11.477 7.164 1.297 14.539 1.027 21.672 2.5 3.508.719 6.922 1.828 9.898 3.867 3.547 2.422 3.953 4.86 5.5 8.692.13.316.274.64.442.945"/><path fill="#f08b7d" d="M392.617 106.313a7.89 7.89 0 0 0-2.394-.38c-.864 0-1.727.153-2.543.493-1.703.71-2.946 2.191-2.946 4.011 0 .594.137 1.208.407 1.817a4.651 4.651 0 0 0 2.3 2.355c.954.45 1.997.606 2.997.606.632 0 1.25-.067 1.828-.164a.767.767 0 0 0 .62-.883.767.767 0 0 0-.886-.625 9.22 9.22 0 0 1-1.563.144c-.84 0-1.667-.14-2.343-.46-.676-.325-1.2-.805-1.559-1.598a2.971 2.971 0 0 1-.273-1.192c.004-1.085.718-2.042 2.011-2.601a5.008 5.008 0 0 1 1.95-.375c.64 0 1.3.11 1.93.312a.764.764 0 0 0 .96-.5.771.771 0 0 0-.496-.96"/><path fill="#76504e" d="M370.844 94.793c-2.344-.129-4.989.344-7.473.945-2.48.653-5.016 1.461-7.094 2.817l-.035.023a.636.636 0 0 1-.742-1.035c2.238-1.746 4.766-2.754 7.316-3.664a39.029 39.029 0 0 1 3.93-1.121c1.34-.297 2.695-.543 4.195-.567a1.301 1.301 0 0 1 1.325 1.282 1.301 1.301 0 0 1-1.282 1.324h-.09l-.05-.004M410.27 87.813c1.574-.266 3.015-.247 4.457-.188 1.445.066 2.867.21 4.273.414 1.414.203 2.816.473 4.207.824 1.383.364 2.766.782 4.102 1.489.312.168.43.554.261.863-.152.293-.504.418-.8.293l-.043-.016c-2.414-.992-5.223-1.32-7.926-1.523a43.326 43.326 0 0 0-4.086-.07c-1.344.046-2.711.16-3.88.453l-.034.011a1.307 1.307 0 0 1-1.586-.945 1.3 1.3 0 0 1 .945-1.582l.11-.023M381.363 124.922c-2.668 1.07-.441 4.066 1.5 5.683 2.16 1.801 4.797 2.852 7.637 2.66 4.164-.28 8.867-.902 10.832-5.488 1.266-2.937 1.465-6.375-1.648-5.18-5.41 2.079-11.11 2.575-16.946 2-.558-.054-1.015.18-1.375.325"/><path fill="#f14959" d="M389.832 127.7c3.473-1.305 7.856-1.067 11.684-.388-2.45 5.418-7.118 5.688-11.02 5.958-2.32.156-4.5-.532-6.406-1.77 1.668-1.64 3.562-2.98 5.742-3.8"/><path fill="#76504e" d="M375.441 106.203c-1.511-1.965-3.925-3.062-6.359-3.066-.77 0-1.547.11-2.293.347-3.105 1.004-5.355 3.965-5.496 7.223a.934.934 0 1 0 1.867.07c.078-2.418 1.883-4.797 4.195-5.511a5.591 5.591 0 0 1 1.727-.262c1.867-.004 3.77.875 4.883 2.336a.924.924 0 0 0 1.305.168.925.925 0 0 0 .171-1.305M422.656 101.848c-1.422-2.438-4.136-3.93-6.918-3.942-.437 0-.875.04-1.304.114-3.207.59-5.829 3.226-6.391 6.44-.09.509.25.99.758 1.075a.937.937 0 0 0 1.082-.758c.394-2.39 2.492-4.507 4.879-4.918.32-.058.644-.086.976-.086 2.106-.007 4.27 1.192 5.301 3.008a.937.937 0 0 0 1.277.344.94.94 0 0 0 .34-1.277"/><path fill="#fff" d="M382.969 128.05c1.144.415 2.375.56 3.574.614 1.566.078 3.144 0 4.7-.191a38.167 38.167 0 0 0 4.679-.895c1.598-.41 3.469-.664 4.836-1.613l.406-.367c.117-.188.14-.414.152-.633a8.364 8.364 0 0 0-.21-2.434l-.165-.258-.187.008c-1.602.367-3.117 1.067-4.73 1.477a34.6 34.6 0 0 1-4.942.867 38.23 38.23 0 0 1-4.488.195 48.957 48.957 0 0 1-2.27-.09c-.804-.05-1.765-.296-2.554-.039.011.504.027 1.008.035 1.508.004.356-.227.89-.012 1.192.125.183.324.289.523.386.215.102.434.192.653.274"/><path fill="#fcd2ae" d="M368.629 178.766c11.074 3.636 16.539 11.808 14.96 23.363-2.265 16.617-10.085 39.781-15.273 57.2-12.996-.575-36.906-7.868-48.789-13.462-1.101-.52 9.98-29.363 11.043-31.976 4.063-10.004 9.14-19.72 15.29-28.602 4.738-6.851 15.03-9.066 22.769-6.523"/><path fill="#3e567d" d="M399.95 109.45c5.327 5.32 15.96 6.355 22.195 2.163 5.734-3.851 7.726-12.07 7.261-18.808-.047-.692-.156-1.434-.633-1.938-.375-.41-.937-.597-1.48-.719-1.363-.3-2.613-.062-3.969-.07-4.375-.035-8.742.2-13.082.695-3.898.446-8.168.622-12.699 2.52-3.703 1.543-4.863 2.582-3.492 6.324 1.234 3.371 3.332 7.274 5.898 9.832M380.543 111.664c-3.871 6.457-13.934 10.047-21 7.504-6.5-2.344-10.434-9.832-11.617-16.48-.125-.68-.2-1.422.133-2.032.27-.488.77-.808 1.265-1.058 1.25-.621 2.524-.696 3.836-1.035a108.034 108.034 0 0 1 12.86-2.508c3.882-.512 8.07-1.383 12.925-.649 3.97.598 5.344 1.317 4.926 5.281-.379 3.57-1.46 7.868-3.328 10.977"/><path fill="#3e567d" d="M381.883 99.367c5.594-.98 9.34-1.355 14.289-1.355.574 0 1.043-.465 1.043-1.043 0-.574-.469-1.047-1.043-1.047-5.063 0-8.992.394-14.649 1.387-.566.101-.945.64-.847 1.207.097.566.64.949 1.207.851"/><path fill="#b3bbc8" d="M404.973 352.14c-1.953 3.794-5.66 11.66-10.852 22.942-36.262 78.824-143.82 322.215-183.797 412.805a5.219 5.219 0 0 0 2.664 6.879 5.22 5.22 0 0 0 6.883-2.668c22.836-51.75 67.75-153.418 108.809-245.735 20.527-46.16 40.093-89.98 55.449-124.054 7.683-17.036 14.308-31.637 19.473-42.868 5.156-11.21 8.89-19.113 10.648-22.511a5.225 5.225 0 0 0-2.246-7.035 5.221 5.221 0 0 0-7.031 2.246"/><path fill="#3e567d" d="M412.004 349.895a5.226 5.226 0 0 0-7.031 2.246c-3.516 6.816-13.895 29.359-30.856 66.988 3.215 1.328 6.399 2.738 9.602 4.09 16.828-37.344 27.101-59.656 30.531-66.297a5.218 5.218 0 0 0-2.246-7.027M225.914 752.57c-5.898 13.36-11.16 25.274-15.59 35.313a5.222 5.222 0 0 0 2.664 6.883 5.22 5.22 0 0 0 6.883-2.668c4.43-10.035 9.688-21.953 15.59-35.313a5.219 5.219 0 0 0-9.547-4.215"/><path fill="#f2536e" d="M226.992 767.758c-1.195-.457-6.441-2.031-6.449-3.633-.004-.266.125-.516.25-.75 3.45-6.523 6.27-13.402 9.25-20.152 2.371-5.371 4.746-10.735 7.117-16.102 1.8-4.074 3.524-8.176 5.23-12.293l.25-.34h.4c3.179.707 6.413 1.54 9.097 3.38.242.16.5.378.504.675l-.118.383c-4.335 8.957-8.343 18.21-12.421 27.355-3.16 7.149-6.282 14.215-9.079 21.508-.16.41-.406.895-.847.93l-.438-.082c-.914-.29-1.851-.532-2.746-.88"/><path fill="#3e567d" d="M276.148 638.648c-1.464 3.262-2.98 6.504-4.648 9.66-.125.239-.254.485-.254.75.012 1.602 5.254 3.172 6.45 3.637.894.34 1.835.582 2.745.875l.438.078c.445-.027.687-.511.848-.93a314.12 314.12 0 0 1 4.062-9.988c-3.18-1.484-6.367-2.89-9.64-4.082M298.89 613.137a360.094 360.094 0 0 1 4.337-9.274l.117-.39c0-.293-.262-.508-.5-.676-2.688-1.84-5.922-2.664-9.098-3.379l-.398.008-.25.34c-1.23 2.964-2.5 5.906-3.774 8.855 3.04 1.863 7.012 3.137 9.567 4.516M206.363 804.477c.73.394 1.512.714 2.348.953 5.84 1.691 12.113.558 15.336-5.985 4.148-8.414-.742-17.078-9.95-18.07-8.253-.895-14.558 7.598-13.425 14.996.543 3.567 2.621 6.465 5.691 8.106M430.945 368.34l-1.582 1.355c6.89 8.028 11.075 18.395 11.684 28.957.043.727.07 1.457.07 2.188.004 4.023-.734 7.887-2.793 10.816-1.703 2.477-4.875 4.239-7.633 4.203-.976 0-1.902-.199-2.765-.62-.95-.473-1.711-1.114-2.375-1.946-.992-1.238-1.73-2.918-2.262-4.816-.535-1.895-.863-3.997-1.121-6.032-1.07-8.23-2.395-16.867-6.64-24.53-.688-1.24-1.41-2.442-1.923-3.571-.52-1.125-.816-2.156-.812-3.012 0-.371.047-.715.16-1.066.125-.422.453-.985.985-1.563.785-.879 2-1.777 3.261-2.496 1.266-.723 2.598-1.266 3.559-1.535.5-.14.949-.203 1.367-.203 1.207.008 2.32.488 3.547 1.441 1.215.95 2.45 2.336 3.691 3.785l1.582-1.355 1.586-1.363c-1.265-1.465-2.633-3.055-4.289-4.356-1.644-1.293-3.695-2.328-6.117-2.324-.813 0-1.652.117-2.5.355-1.82.516-4.008 1.516-6.016 2.883-1 .688-1.953 1.465-2.765 2.363-.809.895-1.5 1.918-1.88 3.13a7.715 7.715 0 0 0-.347 2.304c.004 1.762.547 3.336 1.192 4.75.648 1.418 1.43 2.703 2.07 3.863 3.781 6.782 5.11 14.88 6.144 23.035.368 2.805.852 5.938 1.977 8.832.566 1.446 1.3 2.844 2.29 4.086.987 1.239 2.245 2.32 3.788 3.079a10.39 10.39 0 0 0 4.613 1.062c4.387-.035 8.543-2.445 11.055-5.988 2.766-3.973 3.54-8.723 3.543-13.211 0-.817-.027-1.633-.074-2.43-.668-11.496-5.188-22.691-12.684-31.433l-1.586 1.363"/><path fill="#f8a491" d="M517.941 197.777c3.336 9 6.106 17.844 8.63 26.809 2.511 8.95 4.714 17.973 6.562 27.18 1.836 9.207 3.336 18.562 4.125 28.382.375 4.914.586 9.946.398 15.254-.222 5.332-.691 10.88-2.484 17.239-.91 3.164-2.192 6.593-4.379 10.195-1.074 1.762-2.578 3.762-3.988 5.238-1.426 1.528-2.809 2.715-4.172 3.797-5.426 4.176-10.278 6.395-15 8.45-9.399 3.921-18.281 6.425-27.094 8.812-8.789 2.34-17.441 4.383-25.898 6.484-4.223 1.051-8.391 2.113-12.418 3.25-4.004 1.125-7.953 2.344-11.235 3.66l-.285.114c-6.11 2.449-13.047-.52-15.496-6.63-2.312-5.773.25-12.3 5.684-15.07 4.726-2.394 9.113-4.12 13.476-5.785 4.348-1.64 8.625-3.136 12.86-4.586 8.468-2.906 16.796-5.648 24.851-8.566 8.008-2.906 15.922-5.992 22.54-9.492 3.237-1.703 6.241-3.684 7.636-5.121.332-.336.582-.637.621-.766l-.102-.098c.02-.226.27-.976.438-2.086.387-2.21.5-5.535.3-9.02-.195-3.515-.663-7.3-1.304-11.144-1.309-7.707-3.285-15.687-5.61-23.625-4.679-15.84-10.695-31.902-17.585-46.597-4.957-10.555-.422-23.133 10.14-28.09 10.559-4.957 23.133-.418 28.09 10.14.25.532.473 1.063.676 1.602l.023.07"/><path fill="#fcd2ae" d="M482.441 170.695c3.016-.554 6.36-.203 9.856 1.352 14.996 6.672 24.445 22.176 32.023 35.777a116.699 116.699 0 0 1 5.801 12.008c.848 2.047 4.652 8.79 3.914 10.871-1.883 5.317-46.46 23.856-47.672 21.328-7.09-14.785-10.77-34.785-15.902-54.691l-.04-.078a23.236 23.236 0 0 1-.417-1.02c-4.29-11.246 2.176-23.644 12.437-25.547"/><path fill="#f8a491" d="M396.793 351.156c-3.406 2.375-6.629 5.317-9.828 9.086-1.32 1.551-2.656 3.309-2.692 5.348-.035 2.031 1.954 4.164 3.864 3.465.722-.27 1.27-.86 1.808-1.414 2.54-2.625 5.551-4.801 8.836-6.395-3.586 7.043-7.73 15.047-8.152 23.102-.074 1.308-.004 2.718.77 3.777 1.417 1.91 4.554 1.629 6.335.063 1.786-1.57 2.555-3.961 3.254-6.231 1.719.973.309 4.027 2.727 5.184 1.476.703 3.293.398 4.68-.461 1.39-.864 2.41-2.215 3.218-3.637.88 1.559 2.301 3.117 4.086 3.023 2.008-.101 3.25-2.175 4.117-3.996 3.036-6.336 6.817-12.27 11.204-17.75.8-1.02 1.683-2.152 1.601-3.445-.039-.605-.293-1.176-.539-1.734-1.957-4.418-3.746-8.516-7.094-12.098-1.457-1.57-2.976-3.566-4.683-4.836-.203-.152-.422-.305-.676-.36-.332-.077-.68.012-1.008.102-8.57 2.317-15.512 4.801-21.828 9.207"/><path fill="#fdeaec" d="M314.516 807.125c2.562 2.473 8.492 2.227 11.808 2.316.692.016 44.668.524 61.696.176 2.753-.054 6.664-.054 8.718-2.297 2.242-2.457 2.422-6.312 2.387-9.351-.102-8.66.738-19.032 1.328-25.797.121-1.36-.336-2.875-1.41-3.715-.688-.535-1.59-.695-2.453-.809a63.362 63.362 0 0 0-14.082-.355c-.89.074-1.785.176-2.633.465-3.652 1.258-11.684 10.383-11.57 2.625.02-1.172-.086-2.348-.418-3.488-.582-1.946-2.282-4.528-4.528-4.684-2.351-.16-4.171 3.082-5.015 5-3.004 6.816-7.106 10.746-12.285 13.336-4.657 2.332-12 3.476-18.723 5.168-5.383 1.36-11.07 3.66-13.676 8.937-1.633 3.297-2.125 9.63.856 12.473M533.465 806.469c3.324 1.281 8.687-1.254 11.777-2.461.645-.258 41.352-16.91 56.899-23.856 2.515-1.12 6.12-2.644 7.136-5.511 1.114-3.133-.226-6.762-1.441-9.54-3.461-7.94-6.719-17.816-8.813-24.28-.418-1.298-1.425-2.52-2.746-2.876-.84-.23-1.73-.02-2.574.211a63.042 63.042 0 0 0-13.11 5.157c-.788.414-1.577.851-2.241 1.449-2.875 2.586-6.723 14.113-9.637 6.926-.438-1.09-.992-2.133-1.746-3.051-1.29-1.57-3.86-3.285-5.989-2.555-2.226.77-2.644 4.465-2.675 6.559-.114 7.449-2.364 12.664-6.13 17.074-3.378 3.957-9.698 7.863-15.234 12.047-4.433 3.343-8.773 7.68-9.12 13.55-.223 3.672 1.792 9.7 5.644 11.157"/><path fill="#935c5c" d="M474.293 109.75c6.004 8.297 13.566 14.727 20.16 21.813 6.602 7.082 12.235 14.765 14.613 25.617a1.046 1.046 0 0 0 2.043-.445c-2.488-11.348-8.422-19.41-15.129-26.598-6.714-7.196-14.19-13.575-20-21.61a1.04 1.04 0 0 0-1.453-.238c-.468.34-.574.992-.234 1.461M331.555 112.543A170.59 170.59 0 0 1 297.5 162.09c-.406.41-.402 1.07.008 1.472.406.407 1.07.407 1.472-.003a172.66 172.66 0 0 0 34.477-50.16 1.04 1.04 0 0 0-.523-1.38 1.04 1.04 0 0 0-1.38.524"/><path fill="#f8a491" d="M297.555 458.273c-2.426 3.883-7.067 9.856-4.996 14.739.558 1.324 1.953 2.39 3.367 2.148.949-.168 1.77-.8 2.394-1.531 3.145-3.652 5.864-7.973 9.356-11.98-1.438 4.527-2.43 7.835-4.27 12.492-.648 1.64-.52 3.57.078 5.226.598 1.664 2.223 3.07 3.973 2.871 1.82-.21 3.027-1.937 3.914-3.539 2.48-4.492 4.219-9.387 6.328-14.191-.324 6.312-.273 10.652.219 16.515.148 1.793 1.8 3.477 3.59 3.622 2.336.195 4.398-2.399 4.387-4.743-.032-5.074.835-10.054 1.347-15.609.914 3.687 2.528 6.512 3.653 9.777 1.457 4.215 5.855 1.38 5.843-2.058-.031-8.395-.453-16.617-.785-25.246-.055-1.332-.121-2.805-1.047-3.758-.433-.45-1.008-.727-1.57-.996-4.469-2.149-8.59-4.16-13.586-4.735-2.188-.25-4.703-.8-6.879-.66-.262.016-.527.051-.766.168-.308.164-.52.465-.718.754-2.008 2.926-4.02 5.852-6.012 8.79-2.672 3.944-5.305 7.917-7.82 11.944"/><path fill="#be6f68" d="M431.305 461.074c-10.282-2.73-19.5-5.027-30.961-9.262a1.051 1.051 0 0 0-1.344.622c-.2.539.078 1.136.621 1.34 11.57 4.273 20.89 6.593 31.145 9.32a1.042 1.042 0 0 0 1.277-.742 1.048 1.048 0 0 0-.738-1.278M363.27 381.941c1.324.778 2.75.864 3.964.954 4.496.304 9 .453 13.508.453h.453a1.049 1.049 0 0 0 1.043-1.047c0-.578-.468-1.043-1.047-1.043h-.449c-4.457 0-8.922-.149-13.37-.445-1.196-.075-2.282-.204-3.036-.665a1.04 1.04 0 0 0-1.43.364 1.04 1.04 0 0 0 .364 1.43M443.45 378.777c16.343-.39 32.542-4.609 48.394-4.597 4.32 0 8.61.308 12.879 1.086a1.044 1.044 0 0 0 1.214-.836c.106-.57-.269-1.11-.84-1.211-4.413-.809-8.835-1.125-13.253-1.125-16.215.008-32.422 4.234-48.442 4.594a1.044 1.044 0 0 0-1.02 1.07 1.043 1.043 0 0 0 1.067 1.02"/></svg>