<svg xmlns="http://www.w3.org/2000/svg" width="1080" viewBox="0 0 810 810" height="1080" version="1.0"><defs><clipPath id="a"><path d="M150.355 248H155v30h-4.645Zm0 0"/></clipPath><clipPath id="b"><path d="M150.355 164H302v88H150.355Zm0 0"/></clipPath><clipPath id="c"><path d="M278 571h363v238.621H278Zm0 0"/></clipPath><clipPath id="d"><path d="M168.293.41H646.27v453.348H168.293Zm0 0"/></clipPath></defs><path fill="#3f3b4f" d="M219.781 212.02v18.855l-53.914 31.129v-18.86l53.914-31.124"/><path fill="#555468" d="m153.559 254.953 12.308 7.05v-18.858l-12.308-7.051v18.86"/><path fill="#68667f" d="m165.867 243.145 53.914-31.125-12.308-7.051-53.914 31.125 12.308 7.05"/><path fill="#f2f2f2" d="M160.898 243.762c-2.445-2.172-4.96-1.332-5.617 1.87-.656 3.208.797 7.563 3.246 9.735 2.446 2.172 4.965 1.332 5.621-1.87.649-3.208-.796-7.571-3.25-9.735"/><path fill="#ccc" d="M160.816 244.164c-2.273-2.02-4.62-1.238-5.23 1.746-.606 2.98.746 7.031 3.027 9.05 2.274 2.024 4.61 1.243 5.223-1.737.61-2.985-.742-7.04-3.02-9.059"/><path fill="#999" d="M161.504 246.527c-1.168-1.047-2.371-.644-2.688.891-.312 1.535.383 3.617 1.555 4.656 1.172 1.047 2.375.637 2.688-.89.312-1.536-.383-3.618-1.555-4.657"/><path fill="#4d4d4d" d="M161.7 247.5c-.731-.64-1.485-.395-1.673.563-.199.953.235 2.253.965 2.898.727.648 1.48.398 1.676-.555.191-.957-.242-2.254-.969-2.906"/><path fill="#666" d="M160.145 245.945c-.41.203-.723.664-.864 1.344-.312 1.535.383 3.625 1.555 4.664.465.414.941.598 1.363.574-.512.254-1.172.121-1.824-.453-1.172-1.039-1.867-3.12-1.555-4.656.188-.922.696-1.434 1.325-1.473"/><path fill="#fff" d="M160.223 248.047c.148-.242.382-.234.523.016.14.253.125.66-.02.91-.152.242-.39.242-.523-.012a1.006 1.006 0 0 1 .02-.914M160.664 247.723l-.191-.075.132-.32.184.078-.125.317"/><path fill="#999" d="M155.586 245.91c.344-1.691 1.25-2.672 2.375-2.844-.66.454-1.164 1.274-1.406 2.442-.606 2.941.73 6.949 2.988 8.949 1.105.98 2.227 1.293 3.152 1-1.039.95-2.582.84-4.09-.496-2.273-2.02-3.632-6.07-3.02-9.05"/><g clip-path="url(#a)"><path fill="#48455b" d="m150.355 275.05 4.563 2.634v-26.336l-4.563-2.63v26.333"/></g><g clip-path="url(#b)"><path fill="#68667f" d="m150.387 248.809 4.543 2.62 6.097-3.468 140.203-80.996-4.543-2.625-146.3 84.469"/></g><path fill="#3f3b4f" d="m301.23 166.965-.085.035-14.79 8.543-125.328 72.418-6.109 3.469v26.254l125.297-72.348 7.562-4.363a44.2 44.2 0 0 1 13.286-5.547c4.644-1.082 10.816-2.535 17.292-.098 5.805 2.192 9.079 6.461 11.168 9.27 10.657 14.3 8.98 33.98 8.286 39.91 0 .504.09 1.402.714 1.902 0 0 .836.672 2.614.121 3.14-.96 12.285-25.515 3.699-46.629-10-24.574-38.887-31.832-43.606-32.937"/><path fill="#f9c6b2" d="M560.832 351.832c-2.93 3.7-16.008 205.953 52.117 289.992-128.566 124.793-350.187 41.051-284.324-120.222 17.012-34.977 33.29-48.95-.313-101.395l232.52-68.375"/><g clip-path="url(#c)"><path fill="#544e60" d="M309.898 796.977C282.121 772 279.297 699.148 278.95 690.094c-1.582-40.75 7.63-73.375 14.817-92.91 5.234-8.309 17.414-26.582 22.457-26.118 5.804.528 4.172 20.57 4.945 21.172 13.5 98.637 161.66 124.39 291.738 49.34 9.223 3.738 18.383 9.453 27.477 13.453-150.688 126.172-286.348 181.633-330.485 141.946"/></g><path fill="#d8a69a" d="M334.664 628.297c-.633 0-1.008-.117-1.113-.36a95.824 95.824 0 0 1-6.762-13.757c-2.66-6.848-4.559-14.168-5.621-21.942-.027-.015-.047-.05-.066-.101l-.153-1.235c-.09-1.718-.074-4.859-.285-8.148.156-.035.305-.074.465-.121.226-.063.453-.121.68-.176 13.613-3.46 27.07-7.168 40.34-11.207 48.773-14.496 113.296-37.863 151.695-72.988 1.433-1.07 2.851-2.16 4.273-3.262-37.449 76.691-169.773 133.3-183.453 133.297"/><path fill="#494153" d="M326.79 614.18a92.193 92.193 0 0 1-5.688-22.043c.02.05.039.086.066.101 1.062 7.774 2.96 15.094 5.621 21.942m-5.84-23.278a94.455 94.455 0 0 1-.566-8.07l.273-.078h.008c.211 3.289.195 6.43.285 8.148"/><path fill="#ffccb3" d="M470.445 345.691c1.535-5.933 4.657-18.007 13.332-27.136 1.625-1.715 16.836-17.278 33.262-12.399 4.656 1.383 8.34 4.098 11.23 7.27-2.062-2.582-6.324-7.098-12.953-8.914-12.632-3.45-23.812 5.675-28.058 9.136-14.047 11.465-16.57 28.278-17.13 33.356.071-.313.177-.766.317-1.313M579.508 110.2c-23.356-21.086-53.692-35.883-91.41-40.379-20.707-2.468-39.625-1.52-57.024 2.278-59.695 9.933-130.367 46.433-156.07 65.379-25.629 16.695-48.645 54.253-61.18 92.933-3.152 9.695-5.648 19.465-7.355 28.988-1.211 6.797-2.035 13.461-2.41 19.895.351 11.039 10.039 18.863 15.836 25.582l.02.02c.91 1.066 1.73 2.109 2.401 3.128.657 1.184 1.075 2.754 1.305 4.637l.004.117c.191 1.54.23 3.293.137 5.192l-.008.191c-.195 3.902-.941 8.488-2.145 13.383l-.058.215c-1.77 7.07-4.528 14.797-8.098 22.113-.156.344-.328.68-.496 1.02-3.578 9.28-4.074 21.3-2.61 34.23.055.504.114 1 .184 1.512.012.195.043.394.07.59.06.472.114.93.176 1.402.078.516.149 1.027.22 1.547.144.937.292 1.879.444 2.824.18 1.102.383 2.23.598 3.375a337.887 337.887 0 0 1-12.242 14.11c-3.274 4.707-11.527 16.734 28.371 40.585 27.332 90.164 30.586 133.524 72.754 131.36 3.625-.18 7.543-.696 11.797-1.563 1.289-.351 2.656-.699 4.078-1.082 1.16-.3 2.351-.617 3.586-.949l.273-.078c.16-.035.313-.074.473-.121.383-.102.758-.196 1.152-.297 10.809-2.863 24.403-6.5 39.516-10.977l.187-.058c48.797-14.496 113.43-37.883 151.871-73.047l.04-.035c.425-.39.847-.785 1.273-1.18 9.941-13.441 14.39-53.574 17.402-75.219.637-4.613 1.215-8.39 1.758-10.894 2.918-.274 5.79-.66 8.594-1.164a97.348 97.348 0 0 0 14.98-3.88c12.364-4.269 23.403-10.862 33.09-19.308 66.735-58.25 68.547-204.164-11.484-276.375"/><path fill="#f4c2ae" d="M219.805 304.813c.77.718 3.664 3.05 3.828 7.964.89 9.618-1.778 22.371-10.344 41.473 0 0-7.223 14.723-1.242 46.121l22.926-40.086 17.195-36.808a106.575 106.575 0 0 1-16.453-7.586 108.132 108.132 0 0 1-15.91-11.079"/><path fill="#ffc6ac" d="m326.496 573.148-.328-.011c-.645-1.172 45.637-18.328 80.02-55.524 16.21-17.531 24.582-26.582 28.238-42.047 3.594-15.164 51.367-60.378 71.699-60.378 2.75 0 5.004.828 6.57 2.675 2.07 2.434 3.867 5.149 4.856 8.188 1.203 3.71 1.18 6.82 1.133 8.344-1.11 38.671-16.563 57.96-16.563 57.96-5.578 6.957-17.68 13.817-41.887 27.532-18.78 10.644-33.164 17.406-36.707 19.062-19.148 8.938-33.574 14.133-49.18 19.766-11.734 4.234-23.773 7.637-47.85 14.433"/><g clip-path="url(#d)"><path fill="#634e42" d="M635.684 330.375a147.473 147.473 0 0 1-11.118 23.094c-6.332 10.613-38.25 62.222-65.914 87.398-6.062 5.547-11.949 9.82-17.293 12.082-7.84 3.34-9.394-12.644-8.797-30.949l.008-.18c.371-11.695 1.617-24.289 2.598-33.379.453-4.05.848-7.382 1.098-9.675 1.386-12.489 2.132-18.72 2.261-20.375.934-10.918 1.586-18.579-.777-26.817-.703-2.422-3.262-11.332-9.48-18.148-2.891-3.172-6.575-5.887-11.23-7.27-16.427-4.879-31.638 10.684-33.263 12.399-8.675 9.129-11.797 21.203-13.332 27.136-.113.446-.226.88-.316 1.313-2.606 10.785-2.27 18.976-9.242 25.633-3.09 2.941-6.13 4.18-7.621 4.675-.809.262-9.438 2.961-16.707-1.652-2.368-1.5-4.176-3.515-5.606-6.05-1.176-2.075-2.113-4.516-2.871-7.286-1.746-6.262-2.121-12.199-1.668-18.27.68-9.308 3.293-18.925 5.91-30.519 1.992-8.867 4.746-22.258 7.133-39.144l-62.187 14.523c-23.688 3.645-44.633 3.89-61.868 2.766l7.953 24.804c-60.472-5.867-96.976-34.386-116.886-57.086a150.54 150.54 0 0 1-7.977-9.89 138.43 138.43 0 0 1-3.062-3.078c-3.39-4.899-6.008-9.715-8.04-14.383a8.184 8.184 0 0 1-.847-2.031 78.12 78.12 0 0 1-2.848-8.5c-1.98-7.243-2.797-14.516-2.707-21.758h-12c8.797-46.434 49.844-86.074 49.844-86.074h-.016c22.743-28.145 47.801-47.711 50.579-49.832-13.614.535-25.106-.309-31.157-2.582 43.25-8.754 77.063-18.805 100.621-26.684 18.653-6.23 38.371-13.594 67.329-18.074a305.732 305.732 0 0 1 54.113-3.485c-4.613-4.797-8.086-9.16-9.93-12.613 21.93 3.227 69.738 13.469 113.367 51.715 43.254 37.922 58.93 82.816 66.824 106.367 10.102 30.121 12.07 54.16 13.899 76.39 2.508 30.637 4.414 60.696-8.777 95.489"/></g><path fill="#ffccb3" d="M534.672 505.965c-6.371 7.738-35.27 44.672-37.18 47.105-10.445 13.29-21.14 21.188-35.765 32.004-12.122 8.961-18.797 13.899-29.493 18.824-24.222 11.164-49.582 20.172-49.582 20.172-3.777 1.344-11.504 3.965-12.3 9.227-.63 4.164 2.968 8.031 4.34 9.465 5.292 5.535 35.148 28.754 108.074 25.144 0 0 54.722-2.707 84.84-27.343 3.902-3.196 6.03-7.235 6.03-7.235a57.797 57.797 0 0 0 2.575-9.121c4.496-23.105-6.824-41.293-16.543-63.207-5.5-12.39-12.594-30.734-18.25-54.93-.172-1.336-.586-3.125-1.727-3.515-1.687-.578-4.058 2.242-5.02 3.41"/><path fill="#59453b" d="M513.48 244.219c9.407-4.762 18.504-10.356 18.504-10.356a286.637 286.637 0 0 0 4.942-3.11l76.004-49.151c2.27-1.465 4.828-2.993 7.484-2.528 3.977.692 5.809 6.14 6.758 8.93 8.465 24.863 8.371 41.566 8.371 41.566a473.026 473.026 0 0 1 1.344 36.118c-.02 14.62-.063 22.117-1.88 31.375-2.323 11.8-6.128 21.16-8.788 27.613-2.895 7.02-5.543 12.039-9.098 18.824-1.387 2.648-5.851 11.09-13.14 22.98a490.32 490.32 0 0 1-20.836 31.266c-2.043 3.129-13.7 20.723-22.383 24.582-1.696.754-2.989.86-3.637.875-6.559.14-11.281-7.312-12.164-8.793-2.32-3.851-2.793-7.422-3.453-12.39a55.76 55.76 0 0 1-.375-10.883c.105-4.867.347-12.285 1.004-21.438.394-5.594.515-5.816.785-10.039.71-11.512 1.105-17.914-.16-25.887-.899-5.66-1.836-11.199-5.645-17.257-1.324-2.098-4.062-6.36-8.949-9.657-10.375-7.007-22.797-4.57-26.898-3.441-13.649 3.746-21.34 14.48-25.18 20.004-14.371 20.664-9.828 39.59-19.637 42.297-5.613 1.547-11.808-3.364-14.754-6.93-5.75-6.957-3.953-16.492-1.101-30.484 1.797-8.79 5.675-23.664 15.875-42.805 6.851-12.875 10.28-19.309 15.293-23.54 11.402-9.605 17.828-5.636 41.714-17.741"/><path fill="#6d574d" d="M578.676 99.98c-1.38-7.988-5.594-17.632-18.903-29.34-4.367-3.84-25.101-24.734-69.097-32.445-17.043-2.984-50.086-5.125-83.094.946-58.219 15.816-112.695 34.902-159.758 72.656-30.375 24.367-37.523 40.668-40.855 51.918-9.637 32.52 4.32 61.496 8.3 69.773 20.325 42.215 61.118 57.07 70.598 60.246-3.906-11.855-7.816-23.707-11.722-35.562a327.47 327.47 0 0 0 11.34 2.113c31.577 5.344 80.359 5 143.093-6.523-8.441-.617-31.836-.504-47.555-16.293-4.828-4.848-9.675-11.742-9.945-24.106-.226-10.937 6.281-19.008 8.824-22.36 26.528-34.972 80.028-46.124 80.028-46.124 8.445-1.758 63.68-12.66 96.62-12.434 2.513.016 9.329-.402 15.321-4.593 10.633-7.434 7.223-25.43 6.805-27.872"/><path fill="#fcd2c3" d="M252.922 334.188c-6.824 4.578-8 13.152-12.262 19.968-2.758 4.414-3.18 4.992-4.625 7.586-4.695 8.38-10.988 25.035-21.308 38.344-2.489 3.21-4.77 6.586-7.375 9.695-3.293 3.922-5.075 5.559-5.887 8.707-.934 3.649.078 6.836.707 8.735 3.777 11.382 16.297 15.656 18.945 16.566.485.16 9.828 3.3 11.293.824.918-1.55-2.144-3.754-4.937-10.238-1.012-2.352-2.934-6.809-2.707-11.414.293-6.098 4.257-10.469 6.117-12.59 9.953-11.371 16.586-25.281 25.39-37.57 11.84-16.535 15.809-22.621 14.72-30.512-.223-1.625-1.04-7.574-5.427-9.93-4.07-2.18-9.441-.328-12.644 1.829"/><path fill="#d9a19b" d="M239.934 413.105c-.051-.492-.11-.968-.16-1.44.058.48.109.956.16 1.42v.02m-.211-1.847c-.473-3-1.578-5.754-3.16-8.07a111.65 111.65 0 0 0 1.867-2.649c.062.488.132.98.191 1.477.027.203.05.406.078.609.082.664.172 1.383.266 2.156.2 1.61.39 3.242.578 4.89l-.004.009c.07.52.125 1.05.184 1.578m-27.403-11.363 7.582-13.258c1.63-2.508 3.223-4.778 4.426-6.16 2.164-2.274 3.465-3.336 4.352-3.809-3.207 6.543-7.04 13.824-11.797 20.504a20.078 20.078 0 0 0-4.563 2.723"/><path fill="#d09997" d="M212.098 400.07c.082-.61 4.058-7.668 7.804-13.433l-7.582 13.258c-.093.074-.164.132-.222.175"/><path fill="#d7a5a9" d="M236.563 403.188c-2.504-3.688-6.184-6.293-10.364-7.118a14.665 14.665 0 0 0-2.832-.277c-2.465 0-4.676.617-6.484 1.379 4.758-6.68 8.59-13.961 11.797-20.504.484-.254.843-.336 1.144-.336.133 0 .25.02.363.035.446.078.868.25 1.27.52.242.164.43.328.566.445a.207.207 0 0 0 .043.035c.77.742 1.465 1.836 2.082 3.238.118.262.23.536.344.832a34.832 34.832 0 0 1 1.207 3.735c.043.172.086.344.133.515 0 .008.004.012.004.028.191.746.379 1.52.55 2.336.141.633.294 1.394.466 2.293.02.078.03.152.05.242.145.785.286 1.586.426 2.414.164.98.356 2.223.586 3.758.008.039.008.07.012.105.172 1.196.344 2.426.504 3.676-.61.89-1.23 1.774-1.868 2.649"/><path fill="#a49ebd" d="M314.402 457.02c-5.879 0-11.914-1.125-17.828-3.56-.21-.089-.422-.17-.633-.26-4.12-1.7-8.21-3.454-12.253-5.243.675.3 1.355.598 2.042.898l66.602-80.5c-.285-.09-.578-.171-.871-.261-1.02-.301-2.047-.606-3.063-.91-1.312-.391-2.625-.786-3.933-1.192-1.293-.402-2.586-.797-3.871-1.203-1.313-.41-2.625-.824-3.93-1.25l-65.187 78.793c-10.461-5-20.606-10.32-30.41-15.965a433.404 433.404 0 0 0 19.671 10.653l64.059-77.442-.375-.129c-.977-.336-1.945-.687-2.906-1.023a566.486 566.486 0 0 1-9.364-3.403 940.37 940.37 0 0 1-3.98-1.515c17.191 6.59 35.015 12.402 53.32 17.426v38.82c0 27.074-22.21 47.273-47.09 47.266m-74.859-47.348a426.175 426.175 0 0 0-.578-4.89c-.11-.93-.223-1.856-.344-2.766-.059-.496-.121-.996-.184-1.477 6.204-9.043 11.446-18.82 17.836-27.738 11.84-16.535 15.809-22.621 14.72-30.512-.13-.918-.442-3.21-1.485-5.46a495.712 495.712 0 0 0 34.328 14.995c-1.379-.535-2.754-1.094-4.121-1.637a494.92 494.92 0 0 1-8.16-3.375l-52.012 62.86"/><path fill="#a4aad1" d="M205.988 403.574a329.109 329.109 0 0 1-15.09-11.75l19-22.972c-.57 6.273-.359 13.136.45 20.27.05.433.093.858.152 1.288.012.106.023.207.04.317.003.082.015.168.03.25.203 1.668.446 3.402.739 5.191a199.392 199.392 0 0 0-5.32 7.406"/><path fill="#a49ebd" d="M210.5 390.41c-.059-.43-.102-.855-.152-1.289-.809-7.133-1.02-13.996-.45-20.27l.16-.19c-.535 5.573-.617 12.804.442 21.75m11.402-7.278 13.07-22.848 15.516-33.207c2.836 1.54 5.696 3.05 8.578 4.54-2.304.448-4.507 1.464-6.144 2.57-6.824 4.578-8 13.152-12.262 19.968-2.758 4.414-3.18 4.992-4.625 7.586-2.062 3.676-4.433 8.957-7.32 14.844-.363.172-.75.445-1.328.93-.332.28-.676.578-1.207 1.09-.293.28-.75.726-1.297 1.28-.172.173-.36.376-.555.59a125.66 125.66 0 0 0-2.426 2.657"/><path fill="#a4aad1" d="M179.484 381.86a9.347 9.347 0 0 1-.21-.192l-.274-.254a73.027 73.027 0 0 1-7.559-8.121l51.668-62.45v-.003c.078.05.16.101.243.152.109.524.199 1.082.27 1.668l.003.117c.008.016.008.036.016.063.132 1.488.183 3.05.14 4.7-.008.147-.015.288-.02.429l-.007.191c-.191 3.688-.86 7.969-1.95 12.555l-42.32 51.152"/><path fill="#a49ebd" d="M221.805 330.715c1.09-4.586 1.757-8.867 1.949-12.555l.008-.191c.004-.14.011-.281.02-.43-.102 3.863-.716 8.188-1.95 13.145l-.027.03m1.836-17.874c-.008-.027-.008-.047-.016-.063l-.004-.117c-.07-.586-.16-1.144-.27-1.668.036.024.067.043.102.063.098.535.156 1.11.18 1.722 0 .016 0 .036.008.063"/><path fill="#a19bbc" d="M211.309 396.168c-.293-1.79-.536-3.523-.739-5.191a1.822 1.822 0 0 1-.03-.25 9.973 9.973 0 0 1-.04-.317c-1.059-8.945-.977-16.176-.441-21.75l36.28-43.86a398.98 398.98 0 0 1-13.262-7.71l-11.245 13.594c1.234-4.957 1.848-9.282 1.95-13.145a40.827 40.827 0 0 0-.141-4.7c-.008-.026-.008-.046-.008-.062a12.21 12.21 0 0 0-.18-1.722 384.58 384.58 0 0 0 13.469 8.332c.004.008.012.008.02.015.054.036.113.07.171.102a.488.488 0 0 1 .07.043c.044.027.083.043.126.07.03.02.058.04.09.059.038.02.078.035.109.062.035.02.062.04.101.059.032.02.063.035.094.055.04.02.07.039.11.066.03.012.058.031.09.05.038.024.074.044.113.071.027.012.05.024.078.035a.675.675 0 0 0 .125.078c.02.012.039.028.058.04.051.023.094.054.141.081.004 0 .012.008.02.008.183.106.367.215.546.324.008 0 .008.004.012.004.05.028.102.059.152.09.02.008.036.02.051.028.047.03.09.054.14.082.02.011.04.023.06.039l.132.074.07.039c.047.027.09.05.13.078.023.012.05.031.07.035.043.028.09.055.133.078.02.012.05.032.07.043.043.028.082.047.125.07.027.02.059.036.086.051.035.02.074.047.113.067.031.02.07.043.102.055.03.019.062.039.097.058.07.047.133.082.203.121a418.853 418.853 0 0 0 9.758 5.461l-15.515 33.207-13.07 22.848a213.106 213.106 0 0 0-10.594 13.035"/><path fill="#a39fc2" d="M238.438 400.54c-.153-1.18-.313-2.353-.512-3.677a156.998 156.998 0 0 0-.598-3.863c-.183-1.105-.332-1.89-.426-2.414-.168-.871-.34-1.727-.515-2.535a55.488 55.488 0 0 0-.551-2.336c-.043-.188-.094-.363-.137-.543-.293-1.102-.601-2.184-1.117-3.524-.031-.074-.055-.144-.09-.21a12.34 12.34 0 0 0-.344-.833c-.878-2-1.59-2.789-2.082-3.238a4.266 4.266 0 0 0-.609-.48c-.422-.297-.988-.59-1.605-.59-.07 0-.149.008-.223.015-.2.024-.363.075-.48.106a5.478 5.478 0 0 0-.434.168c2.887-5.887 5.258-11.168 7.32-14.844 1.445-2.594 1.867-3.172 4.625-7.586 4.262-6.816 5.438-15.39 12.262-19.969 1.637-1.105 3.84-2.12 6.144-2.57a472.557 472.557 0 0 0 10.442 5.211c1.043 2.25 1.355 4.543 1.484 5.461 1.09 7.89-2.879 13.977-14.719 30.512-6.39 8.918-11.632 18.695-17.836 27.738"/><path fill="#9a93b7" d="M238.621 402.016c-.059-.496-.129-.989-.191-1.477h.007c.063.48.125.98.184 1.477m-14.293-21.54c.195-.214.383-.417.555-.59.547-.554 1.004-1 1.297-1.28.53-.512.875-.81 1.207-1.09.578-.485.965-.758 1.328-.93a.86.86 0 0 1-.035.082c-.887.473-2.188 1.535-4.352 3.809"/><path fill="#9a94bb" d="M238.43 400.54c-.16-1.25-.332-2.481-.504-3.677.199 1.325.36 2.496.512 3.676h-.008M237.328 393c-.14-.828-.281-1.629-.426-2.414.094.523.243 1.309.426 2.414m-1.629-7.828a34.832 34.832 0 0 0-1.207-3.735c.035.067.059.137.09.211.516 1.34.824 2.422 1.117 3.524m-1.55-4.567c-.618-1.402-1.313-2.496-2.083-3.238.493.45 1.204 1.238 2.082 3.238m-2.691-3.718a3.278 3.278 0 0 0-1.27-.52c-.113-.015-.23-.035-.363-.035-.3 0-.66.082-1.144.336a.86.86 0 0 0 .035-.082c.148-.063.289-.121.433-.168.118-.031.282-.082.48-.106a2.21 2.21 0 0 1 .224-.015c.617 0 1.183.293 1.605.59"/><path fill="#a4aad1" d="M158.848 350.125a76.423 76.423 0 0 1-3.93-24.215v-48.226l15.598-9.008c9.964 10.039 21.218 19.765 33.773 29.097a137.5 137.5 0 0 1-1.203-.898c-.957-.71-1.899-1.438-2.844-2.152a411.89 411.89 0 0 1-4.617-3.614v.008l-39.586 47.84a75.36 75.36 0 0 0 2.809 11.168"/><path fill="#7379a4" d="M154.918 277.684V251.43a258.61 258.61 0 0 0 3.625 4.312c.012.008.016.02.023.028l.012.02c.797.92 1.606 1.839 2.422 2.765l.027.015a247.461 247.461 0 0 0 9.489 10.106l-15.598 9.008"/><path fill="#a4aad1" d="M222.938 310.723c-.618-.395-1.235-.801-1.84-1.196l-.008-.007c.613.402 1.23.804 1.847 1.203m-8.566-5.73a267.744 267.744 0 0 1-5.473-3.848c-.355-.254-.707-.512-1.054-.766 2.14 1.547 4.312 3.09 6.527 4.613"/><path fill="#3f3b4f" d="m367.531 367.45-6.039 3.484v38.82c0 16.742-8.492 30.851-20.855 39.183 15.582-7.453 26.957-23.28 26.957-42.656V367.47l-.063-.02M230.195 376.332c.172.023.344.074.344.074l.332.121c-1.23 1.282-2.793 2.996-4.742 5.282a214.128 214.128 0 0 0-14.031 18.261l-6.11 3.504c.637-.93 1.301-1.898 1.961-2.84.461-.629.906-1.265 1.363-1.886.13-.184.27-.364.399-.54v-.015h.004l.027-.031c.778-1.043 1.555-2.094 2.336-3.145l2.715-3.5c.496-.62 1.223-1.535 2.113-2.617 1.446-1.766 2.477-2.969 3.117-3.719 1.895-2.172 3.528-4.027 4.86-5.394a35.69 35.69 0 0 1 1.605-1.57l.336-.297.242-.211s.961-.957 1.993-1.344c.187-.07.379-.13.57-.152l.305-.008.261.027"/><path fill="#68667f" d="M367.531 367.45c-43.652-11.993-84.558-28.442-120.699-49.305-36.379-21-64.977-44.79-85.805-70.184l-6.109 3.469c.273.328 1.125 1.36 1.394 1.683.293.352 1.184 1.395 1.477 1.746.262.305.516.606.777.91l2.461 2.801c20.192 22.723 46.746 44.012 79.703 63.047 36.16 20.867 77.086 37.324 120.762 49.317l6.04-3.485"/><path fill="#fbfbfb" d="M171.434 373.297a74.99 74.99 0 0 1-12.586-23.172 75.124 75.124 0 0 0 12.593 23.168l-.007.004"/><path fill="#bec3dc" d="M171.441 373.293a75.124 75.124 0 0 1-12.593-23.168 75.36 75.36 0 0 1-2.809-11.168l39.586-47.84v-.008a411.89 411.89 0 0 0 4.617 3.614c.946.714 1.887 1.441 2.844 2.152.398.3.8.602 1.203.898 1.172.875 2.356 1.739 3.555 2.606.347.254.699.512 1.054.766a267.744 267.744 0 0 0 5.473 3.847c.363.254.734.508 1.102.758.656.453 1.312.898 1.976 1.344 1.203.808 2.418 1.617 3.64 2.426l.009.007c.605.395 1.222.801 1.84 1.196.058.039.117.078.171.117v.004l-51.668 62.449"/><path fill="#9796a6" d="M223.11 310.84c-.055-.04-.114-.078-.173-.117.06.039.118.078.172.109v.008m-2.02-1.32a589.022 589.022 0 0 1-3.64-2.426c.176.113.348.23.52.344 1.027.695 2.066 1.382 3.11 2.062l.01.02m-5.616-3.77c-.368-.25-.739-.504-1.102-.758.18.121.352.242.535.363.184.133.375.266.567.395m-7.63-5.371"/><path fill="#fbfbfb" d="M190.898 391.824a291.793 291.793 0 0 1-11.414-9.957 304.599 304.599 0 0 0 11.414 9.957"/><path fill="#bec3dc" d="M190.898 391.824a297.749 297.749 0 0 1-11.414-9.965l42.32-51.144c-.062.273-.132.555-.195.828l-.058.215c-.04.152-.078.3-.113.445-1.653 6.176-4.243 13.297-7.965 21.629-.004.012-.012.023-.02.04-.156.343-.328.679-.496 1.019-1.605 4.156-2.594 8.867-3.059 13.96l-19 22.973"/><path fill="#bfbbcf" d="M209.898 368.852c.465-5.094 1.454-9.805 3.059-13.961.168-.34.34-.676.496-1.02.008-.016.016-.027.02-.039-.063.14-.121.281-.184.418 0 0-2.3 4.684-3.23 14.41l-.16.192m11.538-36.649.114-.445.058-.215c.063-.273.133-.555.196-.828l.027-.031c-.129.5-.258 1.003-.394 1.52"/><path fill="#bdb9ce" d="M210.059 368.66c.93-9.726 3.23-14.41 3.23-14.41.063-.137.121-.277.184-.418 3.722-8.332 6.312-15.453 7.964-21.629.137-.515.266-1.02.395-1.52l11.246-13.593a398.98 398.98 0 0 0 13.262 7.71l-36.281 43.86"/><path fill="#fbd9c8" d="M241.066 426.367a280.01 280.01 0 0 0-1.132-13.281c0-.04-.008-.082-.008-.121.613 5.543.949 10.156 1.14 13.402m-1.293-14.703c-.011-.101-.023-.195-.03-.297-.009-.039-.013-.07-.02-.11.007.013.007.028.007.04.02.121.032.242.043.367m-.023-.285a.422.422 0 0 1-.02-.082c-.046-.445-.097-.89-.148-1.32.05.46.11.925.16 1.39 0 .004 0 .012.008.012"/><path fill="#e2bdb9" d="M239.934 413.086c-.051-.465-.102-.941-.16-1.422a5.548 5.548 0 0 0-.044-.367.422.422 0 0 0 .02.082c.055.535.121 1.062.176 1.586 0 .039.008.082.008.12m-.204-1.788c0-.012 0-.027-.007-.04-.059-.527-.114-1.058-.184-1.577l.004-.008c.016.101.027.203.039.305.05.43.102.875.148 1.32"/><path fill="#fbd9c8" d="M308.172 353.508c-.613-.238-1.23-.473-1.848-.715.617.242 1.23.477 1.848.715"/><path fill="#bfbbcf" d="M260.738 437.02a433.404 433.404 0 0 1-19.672-10.653c-.191-3.246-.527-7.86-1.14-13.402a26.24 26.24 0 0 0-.176-1.586c-.008 0-.008-.008-.008-.012-.05-.465-.11-.93-.16-1.39-.012-.102-.023-.204-.039-.305l52.012-62.86a494.92 494.92 0 0 0 8.16 3.375c1.367.543 2.742 1.102 4.12 1.637.83.324 1.661.649 2.49.969.616.242 1.234.477 1.847.715a940.37 940.37 0 0 0 3.98 1.515c3.11 1.16 6.223 2.293 9.364 3.403.96.336 1.93.687 2.906 1.023l.375.13-64.059 77.44"/><path fill="#b8b3cb" d="M239.926 412.965c-.055-.524-.121-1.05-.176-1.586.074.523.133 1.05.176 1.586m-.344-2.988c-.012-.102-.023-.204-.039-.305.016.101.027.203.039.305"/><path fill="#fbd9c8" d="M283.688 447.957"/><path fill="#bfbbcf" d="M285.73 448.855c-.687-.3-1.367-.597-2.043-.898a484.438 484.438 0 0 1-12.21-5.625l65.187-78.793c1.305.426 2.617.84 3.93 1.25 1.285.406 2.578.8 3.87 1.203a700.456 700.456 0 0 0 6.996 2.102c.294.09.587.172.872.261l-66.602 80.5"/><path fill="#48455b" d="m361.473 397.262 4.562 2.633v-26.336l-4.562-2.63v26.333"/><path fill="#68667f" d="m361.492 370.934 4.543 2.625 146.297-84.473-4.539-2.617-146.3 84.465"/><path fill="#7e7e9b" d="M507.793 286.469c4.8.277 12.84 1.386 21.516 5.922 12.12 6.34 18.535 15.726 21.148 20.105l-38.125-23.41-4.539-2.617"/><path fill="#3f3b4f" d="m512.332 289.086-.07.043.07-.043-14.86 8.578-131.437 75.895v26.253l125.297-72.347 7.563-4.363a44.07 44.07 0 0 1 13.293-5.547c4.636-1.09 10.816-2.535 17.285-.098 5.812 2.188 9.078 6.461 11.168 9.262 10.664 14.3 8.98 33.98 8.285 39.91-.063.344-.196 1.25.34 1.855 0 0 .593.68 1.972.567 2.332-.192 4.657-10.977 6.11-19.235.605-4.449 1-11.039-.403-18.777-.57-3.14-2.437-12.906-8.578-21.664-11.613-16.57-31.605-19.7-36.035-20.29"/><path fill="#3f3b4f" d="M447.879 343.805v18.855l-53.914 31.133v-18.86l53.914-31.128"/><path fill="#555468" d="m381.66 386.738 12.305 7.055v-18.86l-12.305-7.05v18.855"/><path fill="#68667f" d="m393.965 374.934 53.914-31.13-12.305-7.05-53.914 31.129 12.305 7.05"/><path fill="#f2f2f2" d="M388.996 375.547c-2.445-2.164-4.96-1.332-5.617 1.871-.656 3.21.797 7.57 3.242 9.734 2.453 2.172 4.969 1.332 5.625-1.87.656-3.204-.805-7.563-3.25-9.735"/><path fill="#ccc" d="M388.914 375.953c-2.273-2.02-4.617-1.242-5.223 1.742-.613 2.98.739 7.04 3.012 9.059 2.281 2.02 4.617 1.242 5.23-1.746.614-2.98-.738-7.035-3.019-9.055"/><path fill="#999" d="M389.61 378.313c-1.173-1.04-2.376-.637-2.696.898-.312 1.527.383 3.617 1.555 4.656 1.172 1.04 2.375.637 2.687-.898.32-1.535-.383-3.617-1.547-4.656"/><path fill="#4d4d4d" d="M389.8 379.293c-.734-.648-1.48-.395-1.675.559-.2.957.234 2.25.969 2.898.726.652 1.476.398 1.676-.559.187-.957-.243-2.25-.97-2.898"/><path fill="#666" d="M388.246 377.738c-.41.203-.726.664-.867 1.344-.317 1.535.383 3.617 1.555 4.656.472.414.941.598 1.363.575-.516.261-1.172.128-1.82-.454-1.172-1.03-1.868-3.12-1.555-4.656.191-.918.691-1.426 1.324-1.465"/><path fill="#fff" d="M388.32 379.84c.149-.246.383-.242.524.012.14.257.129.656-.02.906-.152.25-.383.242-.52-.012a.99.99 0 0 1 .016-.906M388.754 379.508l-.176-.07.125-.325.188.078-.137.317"/><path fill="#999" d="M383.684 377.695c.351-1.691 1.25-2.672 2.378-2.836-.664.446-1.175 1.266-1.41 2.434-.605 2.95.735 6.957 2.989 8.95 1.109.98 2.23 1.292 3.152 1.007-1.04.95-2.578.84-4.09-.496-2.273-2.02-3.625-6.078-3.02-9.059"/><path fill="#352e44" d="M381.66 390.785v-4.047l3.508 2.016-3.508 2.031"/></svg>