<?xml version="1.0" encoding="UTF-8"?>
<svg width="1080" height="1080" version="1.0" viewBox="0 0 810 810" xmlns="http://www.w3.org/2000/svg" zoomAndPan="magnify">
<defs>
<clipPath id="b">
<path d="m226.47 99h266.53v580h-266.53z"/>
</clipPath>
<clipPath id="al">
<path d="m343.82 401.39h107.18v87.609h-107.18z"/>
</clipPath>
<clipPath id="be">
<path d="m360 488.89c-6.5234 0-12-1.4609-16.027-4.3047 5.4688-1.1602 11.504-3.0312 18.152-5.7344 6.4023-2.8008 10.586-6.3633 12.234-14.656 1.9258-11.82 4.2539-21.359 6.8477-28.906l28.723-20.219c4.3438 3.6445 8.2539 9.7969 11.23 17.453 1.1602 2.5352 2.7305 3.6797 4.5586 3.6797 6.707 0 16.902-15.48 23.219-34.559 1.3594 2.7969 2.0469 6.1172 1.9648 9.9453-0.23438 10.789-6.543 23.59-16.605 35.688-3.3477-4.1641-13.082-15.293-21.238-15.293-1.7227 0-3.375 0.49219-4.8789 1.6523 3.1523 1.0742 8.3867 4.2344 13.66 17.137 0.625 1.4258 1.8789 4.3477 4.6992 4.3477 0.21094 0 0.42188-0.019532 0.65234-0.046875-9.6484 9.6953-21.547 18.492-34.371 24.832-12.281 6.0703-23.598 8.9844-32.82 8.9844"/>
</clipPath>
<clipPath id="bd">
<path d="m360 488.89c-6.5234 0-12-1.4609-16.027-4.3047 5.4688-1.1602 11.504-3.0312 18.152-5.7344 6.4023-2.8008 10.586-6.3633 12.234-14.656 1.9258-11.82 4.2539-21.359 6.8477-28.906l28.723-20.219c4.3438 3.6445 8.2539 9.7969 11.23 17.453 1.1602 2.5352 2.7305 3.6797 4.5586 3.6797 6.707 0 16.902-15.48 23.219-34.559 1.3594 2.7969 2.0469 6.1172 1.9648 9.9453-0.23438 10.789-6.543 23.59-16.605 35.688-3.3477-4.1641-13.082-15.293-21.238-15.293-1.7227 0-3.375 0.49219-4.8789 1.6523 3.1523 1.0742 8.3867 4.2344 13.66 17.137 0.625 1.4258 1.8789 4.3477 4.6992 4.3477 0.21094 0 0.42188-0.019532 0.65234-0.046875-9.6484 9.6953-21.547 18.492-34.371 24.832-12.281 6.0703-23.598 8.9844-32.82 8.9844"/>
</clipPath>
<clipPath id="av">
<path d="m352.41 517.75 122.08-35.734-31.949-109.22-122.07 35.734z"/>
</clipPath>
<linearGradient id="ba" x1=".078" x2=".47536" gradientTransform="matrix(-80.388 -274.87 274.74 -80.424 417.62 521.93)" gradientUnits="userSpaceOnUse">
<stop stop-color="#14c4e8" offset="0"/>
<stop stop-color="#14c3e8" offset=".0078125"/>
<stop stop-color="#14c3e7" offset=".015625"/>
<stop stop-color="#13c2e7" offset=".019531"/>
<stop stop-color="#13c2e7" offset=".023438"/>
<stop stop-color="#13c1e7" offset=".03125"/>
<stop stop-color="#13c0e6" offset=".046875"/>
<stop stop-color="#13bfe6" offset=".054688"/>
<stop stop-color="#13bfe6" offset=".0625"/>
<stop stop-color="#12bee5" offset=".066406"/>
<stop stop-color="#12bde4" offset=".070312"/>
<stop stop-color="#12bde4" offset=".078125"/>
<stop stop-color="#12bce4" offset=".09375"/>
<stop stop-color="#11bbe4" offset=".10156"/>
<stop stop-color="#11bae4" offset=".10938"/>
<stop stop-color="#10bae3" offset=".125"/>
<stop stop-color="#10b9e2" offset=".13281"/>
<stop stop-color="#10b8e2" offset=".14062"/>
<stop stop-color="#10b8e2" offset=".14844"/>
<stop stop-color="#0fb7e2" offset=".15625"/>
<stop stop-color="#0fb6e1" offset=".16406"/>
<stop stop-color="#0fb6e1" offset=".17188"/>
<stop stop-color="#0eb5e1" offset=".17969"/>
<stop stop-color="#0eb4e0" offset=".1875"/>
<stop stop-color="#0eb4e0" offset=".19531"/>
<stop stop-color="#0eb3e0" offset=".20312"/>
<stop stop-color="#0db2e0" offset=".21094"/>
<stop stop-color="#0db2df" offset=".21875"/>
<stop stop-color="#0db1df" offset=".22656"/>
<stop stop-color="#0cb0df" offset=".23047"/>
<stop stop-color="#0bafdf" offset=".23438"/>
<stop stop-color="#0bafdf" offset=".25"/>
<stop stop-color="#0baedf" offset=".25781"/>
<stop stop-color="#0badde" offset=".26562"/>
<stop stop-color="#0badde" offset=".26953"/>
<stop stop-color="#0aacde" offset=".27344"/>
<stop stop-color="#0aacde" offset=".28125"/>
<stop stop-color="#0aacdd" offset=".28906"/>
<stop stop-color="#09abdd" offset=".29688"/>
<stop stop-color="#09aadd" offset=".30469"/>
<stop stop-color="#09aadd" offset=".3125"/>
<stop stop-color="#09a9dc" offset=".32031"/>
<stop stop-color="#08a8dc" offset=".32812"/>
<stop stop-color="#08a7db" offset=".34375"/>
<stop stop-color="#07a6db" offset=".35156"/>
<stop stop-color="#07a6db" offset=".35938"/>
<stop stop-color="#07a5da" offset=".36719"/>
<stop stop-color="#06a4da" offset=".375"/>
<stop stop-color="#06a3da" offset=".39062"/>
<stop stop-color="#06a2d9" offset=".39453"/>
<stop stop-color="#06a1d9" offset=".39844"/>
<stop stop-color="#06a1d9" offset=".40625"/>
<stop stop-color="#06a1d9" offset=".41406"/>
<stop stop-color="#05a0d8" offset=".42188"/>
<stop stop-color="#059fd8" offset=".4375"/>
<stop stop-color="#059fd7" offset=".44531"/>
<stop stop-color="#049ed7" offset=".45312"/>
<stop stop-color="#049dd7" offset=".46094"/>
<stop stop-color="#049dd6" offset=".46875"/>
<stop stop-color="#039cd6" offset=".47656"/>
<stop stop-color="#039bd6" offset=".48047"/>
<stop stop-color="#039bd5" offset=".48438"/>
<stop stop-color="#039ad5" offset=".5"/>
<stop stop-color="#0299d5" offset=".50781"/>
<stop stop-color="#0299d4" offset=".51562"/>
<stop stop-color="#0298d4" offset=".52344"/>
<stop stop-color="#0197d4" offset=".52734"/>
<stop stop-color="#0197d3" offset=".53125"/>
<stop stop-color="#0196d3" offset=".54688"/>
<stop stop-color="#0195d3" offset=".55469"/>
<stop stop-color="#0094d3" offset=".5625"/>
<stop stop-color="#0094d2" offset=".57031"/>
<stop stop-color="#0093d2" offset=".57422"/>
<stop stop-color="#0092d2" offset=".57812"/>
<stop stop-color="#0092d2" offset=".59375"/>
<stop stop-color="#0092d1" offset=".60156"/>
<stop stop-color="#0091d1" offset=".60938"/>
<stop stop-color="#0090d0" offset=".625"/>
<stop stop-color="#008fcf" offset=".64062"/>
<stop stop-color="#008fcf" offset=".64844"/>
<stop stop-color="#008ecf" offset=".65625"/>
<stop stop-color="#008ece" offset=".66406"/>
<stop stop-color="#008dce" offset=".67188"/>
<stop stop-color="#008dcd" offset=".67969"/>
<stop stop-color="#008ccd" offset=".6875"/>
<stop stop-color="#008ccd" offset=".69531"/>
<stop stop-color="#008bcc" offset=".70312"/>
<stop stop-color="#008acc" offset=".71875"/>
<stop stop-color="#008acb" offset=".72656"/>
<stop stop-color="#0089cb" offset=".73438"/>
<stop stop-color="#0088ca" offset=".74219"/>
<stop stop-color="#0088ca" offset=".75"/>
<stop stop-color="#0087c9" offset=".76562"/>
<stop stop-color="#0086c9" offset=".77344"/>
<stop stop-color="#0086c8" offset=".78125"/>
<stop stop-color="#0085c7" offset=".79688"/>
<stop stop-color="#0085c7" offset=".80469"/>
<stop stop-color="#0084c7" offset=".8125"/>
<stop stop-color="#0084c6" offset=".82031"/>
<stop stop-color="#0083c5" offset=".82812"/>
<stop stop-color="#0082c5" offset=".84375"/>
<stop stop-color="#0082c5" offset=".85156"/>
<stop stop-color="#0081c5" offset=".85938"/>
<stop stop-color="#0080c4" offset=".86328"/>
<stop stop-color="#0080c4" offset=".86719"/>
<stop stop-color="#0080c4" offset=".875"/>
<stop stop-color="#007fc3" offset=".89062"/>
<stop stop-color="#007fc3" offset=".90625"/>
<stop stop-color="#007ec2" offset=".9375"/>
<stop stop-color="#007dc2" offset=".96875"/>
<stop stop-color="#007dc1" offset="1"/>
</linearGradient>
<clipPath id="j">
<path d="m295.41 384h157.97v102.78h-157.97z"/>
</clipPath>
<clipPath id="bo">
<path d="m330.77 486.09c-35.352 0-38.465-37.273-32.836-54.789l0.023437-0.015625c18.109 4.1914 29.055 16.672 33.898 38.742l49.352-34.738c-2.5938 7.5469-4.9219 17.086-6.8477 28.906-1.6484 8.293-5.832 11.855-12.234 14.656-6.6484 2.7031-12.684 4.5742-18.152 5.7344-4.832 1.0312-9.2227 1.5039-13.203 1.5039m94.949-49.887c-1.8281 0-3.3984-1.1445-4.5586-3.6797-2.9766-7.6562-6.8867-13.809-11.23-17.453l43.316-30.492c-0.99609 5.793-2.4922 11.578-4.3086 17.066-6.3164 19.078-16.512 34.559-23.219 34.559"/>
</clipPath>
<clipPath id="c">
<path d="m330.77 486.09c-35.352 0-38.465-37.273-32.836-54.789l0.023437-0.015625c18.109 4.1914 29.055 16.672 33.898 38.742l49.352-34.738c-2.5938 7.5469-4.9219 17.086-6.8477 28.906-1.6484 8.293-5.832 11.855-12.234 14.656-6.6484 2.7031-12.684 4.5742-18.152 5.7344-4.832 1.0312-9.2227 1.5039-13.203 1.5039m94.949-49.887c-1.8281 0-3.3984-1.1445-4.5586-3.6797-2.9766-7.6562-6.8867-13.809-11.23-17.453l43.316-30.492c-0.99609 5.793-2.4922 11.578-4.3086 17.066-6.3164 19.078-16.512 34.559-23.219 34.559"/>
</clipPath>
<clipPath id="f">
<path d="m304.99 529.48 175.61-51.398-40.039-136.9-175.61 51.398z"/>
</clipPath>
<linearGradient id="l" x1=".085436" x2=".58046" gradientTransform="matrix(-80.387 -274.86 274.74 -80.423 409.27 524.46)" gradientUnits="userSpaceOnUse">
<stop stop-color="#13c2e7" offset="0"/>
<stop stop-color="#13c2e7" offset=".0078125"/>
<stop stop-color="#13c1e7" offset=".015625"/>
<stop stop-color="#13c0e6" offset=".019531"/>
<stop stop-color="#13bfe6" offset=".023438"/>
<stop stop-color="#13bfe6" offset=".03125"/>
<stop stop-color="#13bee5" offset=".039062"/>
<stop stop-color="#12bde5" offset=".046875"/>
<stop stop-color="#12bde4" offset=".054688"/>
<stop stop-color="#11bce4" offset=".0625"/>
<stop stop-color="#11bbe3" offset=".066406"/>
<stop stop-color="#11bae3" offset=".070312"/>
<stop stop-color="#11bae3" offset=".078125"/>
<stop stop-color="#10b9e3" offset=".085938"/>
<stop stop-color="#10b9e2" offset=".09375"/>
<stop stop-color="#10b8e2" offset=".10156"/>
<stop stop-color="#0fb7e2" offset=".10547"/>
<stop stop-color="#0fb7e1" offset=".10938"/>
<stop stop-color="#0fb6e1" offset=".11719"/>
<stop stop-color="#0fb5e1" offset=".125"/>
<stop stop-color="#0eb5e1" offset=".13281"/>
<stop stop-color="#0eb4e0" offset=".14062"/>
<stop stop-color="#0eb3e0" offset=".14453"/>
<stop stop-color="#0eb2e0" offset=".14844"/>
<stop stop-color="#0db2e0" offset=".15625"/>
<stop stop-color="#0db1df" offset=".16406"/>
<stop stop-color="#0cb0df" offset=".17188"/>
<stop stop-color="#0cafdf" offset=".1875"/>
<stop stop-color="#0baede" offset=".19141"/>
<stop stop-color="#0badde" offset=".19531"/>
<stop stop-color="#0aadde" offset=".20312"/>
<stop stop-color="#0aacdd" offset=".21875"/>
<stop stop-color="#0aabdd" offset=".22656"/>
<stop stop-color="#09aadd" offset=".23047"/>
<stop stop-color="#09aadd" offset=".23438"/>
<stop stop-color="#09a9dc" offset=".23828"/>
<stop stop-color="#09a9dc" offset=".24219"/>
<stop stop-color="#08a8dc" offset=".25"/>
<stop stop-color="#08a7db" offset=".25781"/>
<stop stop-color="#07a7db" offset=".26562"/>
<stop stop-color="#07a6db" offset=".27344"/>
<stop stop-color="#07a5da" offset=".27734"/>
<stop stop-color="#07a5da" offset=".28125"/>
<stop stop-color="#06a4da" offset=".28906"/>
<stop stop-color="#06a3da" offset=".29688"/>
<stop stop-color="#06a2d9" offset=".30469"/>
<stop stop-color="#06a2d9" offset=".3125"/>
<stop stop-color="#06a1d9" offset=".32031"/>
<stop stop-color="#05a0d8" offset=".32422"/>
<stop stop-color="#05a0d8" offset=".32812"/>
<stop stop-color="#059fd8" offset=".33594"/>
<stop stop-color="#049ed7" offset=".34375"/>
<stop stop-color="#049dd7" offset=".35156"/>
<stop stop-color="#049dd6" offset=".35938"/>
<stop stop-color="#039cd6" offset=".36719"/>
<stop stop-color="#039bd6" offset=".375"/>
<stop stop-color="#039ad5" offset=".38281"/>
<stop stop-color="#0299d5" offset=".39062"/>
<stop stop-color="#0298d5" offset=".39453"/>
<stop stop-color="#0298d4" offset=".39844"/>
<stop stop-color="#0298d4" offset=".40625"/>
<stop stop-color="#0197d4" offset=".41406"/>
<stop stop-color="#0196d4" offset=".42188"/>
<stop stop-color="#0195d3" offset=".42969"/>
<stop stop-color="#0094d3" offset=".4375"/>
<stop stop-color="#0094d3" offset=".44531"/>
<stop stop-color="#0093d2" offset=".45312"/>
<stop stop-color="#0092d2" offset=".46094"/>
<stop stop-color="#0092d1" offset=".46875"/>
<stop stop-color="#0091d1" offset=".47656"/>
<stop stop-color="#0090d0" offset=".48047"/>
<stop stop-color="#0090d0" offset=".48438"/>
<stop stop-color="#0090d0" offset=".49219"/>
<stop stop-color="#008fcf" offset=".5"/>
<stop stop-color="#008ecf" offset=".50781"/>
<stop stop-color="#008ece" offset=".51562"/>
<stop stop-color="#008dce" offset=".52344"/>
<stop stop-color="#008dcd" offset=".53125"/>
<stop stop-color="#008ccd" offset=".53906"/>
<stop stop-color="#008bcc" offset=".54688"/>
<stop stop-color="#008acb" offset=".5625"/>
<stop stop-color="#0089cb" offset=".56641"/>
<stop stop-color="#0089ca" offset=".57031"/>
<stop stop-color="#0089ca" offset=".57812"/>
<stop stop-color="#0088ca" offset=".58594"/>
<stop stop-color="#0087c9" offset=".59375"/>
<stop stop-color="#0087c9" offset=".60156"/>
<stop stop-color="#0086c8" offset=".60938"/>
<stop stop-color="#0085c8" offset=".61719"/>
<stop stop-color="#0085c7" offset=".625"/>
<stop stop-color="#0084c7" offset=".63281"/>
<stop stop-color="#0084c6" offset=".64062"/>
<stop stop-color="#0083c6" offset=".64844"/>
<stop stop-color="#0083c5" offset=".65234"/>
<stop stop-color="#0082c5" offset=".65625"/>
<stop stop-color="#0082c5" offset=".67188"/>
<stop stop-color="#0081c4" offset=".67969"/>
<stop stop-color="#0080c4" offset=".6875"/>
<stop stop-color="#007fc3" offset=".71875"/>
<stop stop-color="#007ec2" offset=".73438"/>
<stop stop-color="#007ec2" offset=".75"/>
<stop stop-color="#007ec1" offset=".76562"/>
<stop stop-color="#007dc1" offset=".78125"/>
<stop stop-color="#007dc1" offset=".8125"/>
<stop stop-color="#007dc0" offset=".84375"/>
<stop stop-color="#007cbf" offset=".85938"/>
<stop stop-color="#007cbf" offset=".875"/>
<stop stop-color="#007bbf" offset=".89062"/>
<stop stop-color="#007bbe" offset=".90625"/>
<stop stop-color="#007bbe" offset=".9375"/>
<stop stop-color="#007abd" offset=".95312"/>
<stop stop-color="#007abd" offset=".96875"/>
<stop stop-color="#007abd" offset="1"/>
</linearGradient>
<clipPath id="at">
<path d="m408 431.98h27v24.023h-27z"/>
</clipPath>
<clipPath id="bb">
<path d="m426.54 455.12c-2.8203 0-4.0742-2.9219-4.6992-4.3477-5.2734-12.902-10.508-16.062-13.66-17.137 1.5039-1.1602 3.1562-1.6523 4.8789-1.6523 8.1562 0 17.891 11.129 21.238 15.293-2.1992 2.6445-4.5742 5.2461-7.1055 7.7969-0.23047 0.027343-0.44141 0.046875-0.65234 0.046875"/>
</clipPath>
<clipPath id="w">
<path d="m426.54 455.12c-2.8203 0-4.0742-2.9219-4.6992-4.3477-5.2734-12.902-10.508-16.062-13.66-17.137 1.5039-1.1602 3.1562-1.6523 4.8789-1.6523 8.1562 0 17.891 11.129 21.238 15.293-2.1992 2.6445-4.5742 5.2461-7.1055 7.7969-0.23047 0.027343-0.44141 0.046875-0.65234 0.046875"/>
</clipPath>
<clipPath id="bi">
<path d="m410.24 462.16 30.289-8.8672-8.293-28.359-30.293 8.8672z"/>
</clipPath>
<linearGradient id="bm" x1=".20754" x2=".3107" gradientTransform="matrix(-80.388 -274.87 274.74 -80.424 417.62 521.93)" gradientUnits="userSpaceOnUse">
<stop stop-color="#066e93" offset="0"/>
<stop stop-color="#066e93" offset=".0625"/>
<stop stop-color="#056e93" offset=".09375"/>
<stop stop-color="#056d93" offset=".10938"/>
<stop stop-color="#056d93" offset=".125"/>
<stop stop-color="#056c93" offset=".1875"/>
<stop stop-color="#056c92" offset=".25"/>
<stop stop-color="#046b92" offset=".3125"/>
<stop stop-color="#036a92" offset=".375"/>
<stop stop-color="#036992" offset=".40625"/>
<stop stop-color="#036992" offset=".4375"/>
<stop stop-color="#036991" offset=".5"/>
<stop stop-color="#036891" offset=".53125"/>
<stop stop-color="#036791" offset=".54688"/>
<stop stop-color="#036791" offset=".5625"/>
<stop stop-color="#026790" offset=".625"/>
<stop stop-color="#026690" offset=".65625"/>
<stop stop-color="#016590" offset=".67188"/>
<stop stop-color="#016590" offset=".6875"/>
<stop stop-color="#016590" offset=".75"/>
<stop stop-color="#01648f" offset=".78125"/>
<stop stop-color="#01648f" offset=".8125"/>
<stop stop-color="#01638f" offset=".875"/>
<stop stop-color="#00628e" offset=".90625"/>
<stop stop-color="#00628e" offset=".9375"/>
<stop stop-color="#00618e" offset=".96875"/>
<stop stop-color="#00608e" offset="1"/>
</linearGradient>
<clipPath id="ae">
<path d="m330 362h125.93v129.88h-125.93z"/>
</clipPath>
<clipPath id="az">
<path d="m441.77 362.9c-3.9023-1.3398-10.203 0.066406-17.855 3.3828-10.621 4.0156-30.508 17.91-35.625 21.656-8.9375 5.8711-17.797 12.668-25.785 19.84-14.488 13.023-26.098 27.293-30.059 39.539l-0.015624 0.015626c-5.5977 17.41-0.41406 59.191 51.465 38.125 5.1289-2.2461 8.4844-5.1016 9.8008-11.754 8.8945-54.57 23.051-46.523 32.047-23.383 8.875 19.352 50.883-71.18 16.027-87.422z"/>
</clipPath>
<clipPath id="u">
<path d="m441.77 362.9c-3.9023-1.3398-10.203 0.066406-17.855 3.3828-10.621 4.0156-30.508 17.91-35.625 21.656-8.9375 5.8711-17.797 12.668-25.785 19.84-14.488 13.023-26.098 27.293-30.059 39.539l-0.015624 0.015626c-5.5977 17.41-0.41406 59.191 51.465 38.125 5.1289-2.2461 8.4844-5.1016 9.8008-11.754 8.8945-54.57 23.051-46.523 32.047-23.383 8.875 19.352 50.883-71.18 16.027-87.422"/>
</clipPath>
<clipPath id="br">
<path d="m417.05 288.21-161.14 131 130.49 160.66 161.14-131z"/>
</clipPath>
<linearGradient id="p" x1="-.26564" x2="1.0196" gradientTransform="matrix(88.51 108.97 -108.92 88.549 360.53 384.96)" gradientUnits="userSpaceOnUse">
<stop stop-color="#fff" offset="0"/>
<stop stop-color="#fff" offset=".125"/>
<stop stop-color="#fff" offset=".1875"/>
<stop stop-color="#fff" offset=".20312"/>
<stop stop-color="#fff" offset=".21094"/>
<stop stop-color="#fdfdfd" offset=".21484"/>
<stop stop-color="#fcfcfc" offset=".21875"/>
<stop stop-color="#fcfcfc" offset=".22266"/>
<stop stop-color="#fbfbfb" offset=".22656"/>
<stop stop-color="#fafafb" offset=".23047"/>
<stop stop-color="#f9f9fa" offset=".23438"/>
<stop stop-color="#f9f9fa" offset=".23828"/>
<stop stop-color="#f9f9f9" offset=".24219"/>
<stop stop-color="#f8f8f8" offset=".24609"/>
<stop stop-color="#f7f8f8" offset=".25"/>
<stop stop-color="#f7f7f7" offset=".25391"/>
<stop stop-color="#f6f6f6" offset=".25781"/>
<stop stop-color="#f5f5f6" offset=".26172"/>
<stop stop-color="#f5f5f6" offset=".26562"/>
<stop stop-color="#f4f4f5" offset=".26953"/>
<stop stop-color="#f3f4f4" offset=".27344"/>
<stop stop-color="#f2f3f3" offset=".27734"/>
<stop stop-color="#f2f2f3" offset=".28125"/>
<stop stop-color="#f1f2f2" offset=".28516"/>
<stop stop-color="#f0f1f1" offset=".28906"/>
<stop stop-color="#f0f1f1" offset=".29297"/>
<stop stop-color="#eff0f0" offset=".29688"/>
<stop stop-color="#efeff0" offset=".30078"/>
<stop stop-color="#eeeeef" offset=".30469"/>
<stop stop-color="#edeeee" offset=".30859"/>
<stop stop-color="#eceded" offset=".3125"/>
<stop stop-color="#ececed" offset=".31641"/>
<stop stop-color="#ebebec" offset=".32031"/>
<stop stop-color="#ebebec" offset=".32422"/>
<stop stop-color="#eaebeb" offset=".32812"/>
<stop stop-color="#e9eaeb" offset=".33203"/>
<stop stop-color="#e9e9ea" offset=".33594"/>
<stop stop-color="#e8e9e9" offset=".33984"/>
<stop stop-color="#e7e8e9" offset=".34375"/>
<stop stop-color="#e6e7e8" offset=".34766"/>
<stop stop-color="#e6e6e7" offset=".35156"/>
<stop stop-color="#e5e6e7" offset=".35938"/>
<stop stop-color="#e4e5e6" offset=".36328"/>
<stop stop-color="#e3e4e5" offset=".36719"/>
<stop stop-color="#e3e3e4" offset=".37109"/>
<stop stop-color="#e2e2e3" offset=".375"/>
<stop stop-color="#e1e2e3" offset=".37891"/>
<stop stop-color="#e0e1e2" offset=".38281"/>
<stop stop-color="#e0e1e2" offset=".38672"/>
<stop stop-color="#dfe0e1" offset=".39062"/>
<stop stop-color="#dfe0e0" offset=".39453"/>
<stop stop-color="#dedfe0" offset=".39844"/>
<stop stop-color="#dddedf" offset=".40234"/>
<stop stop-color="#dcdedf" offset=".40625"/>
<stop stop-color="#dcddde" offset=".41016"/>
<stop stop-color="#dcddde" offset=".41406"/>
<stop stop-color="#dbdcdd" offset=".41797"/>
<stop stop-color="#dadbdc" offset=".42188"/>
<stop stop-color="#d9dadb" offset=".42578"/>
<stop stop-color="#d9dadb" offset=".42969"/>
<stop stop-color="#d8d9da" offset=".43359"/>
<stop stop-color="#d7d8d9" offset=".4375"/>
<stop stop-color="#d6d8d9" offset=".44141"/>
<stop stop-color="#d5d7d8" offset=".44531"/>
<stop stop-color="#d5d7d8" offset=".44922"/>
<stop stop-color="#d5d6d7" offset=".45312"/>
<stop stop-color="#d4d5d6" offset=".45703"/>
<stop stop-color="#d3d4d6" offset=".46094"/>
<stop stop-color="#d2d4d5" offset=".46484"/>
<stop stop-color="#d2d3d4" offset=".46875"/>
<stop stop-color="#d1d2d4" offset=".47266"/>
<stop stop-color="#d1d2d3" offset=".47656"/>
<stop stop-color="#d0d1d3" offset=".48047"/>
<stop stop-color="#cfd1d2" offset=".48438"/>
<stop stop-color="#cfd0d2" offset=".48828"/>
<stop stop-color="#cecfd1" offset=".49219"/>
<stop stop-color="#cdcfd0" offset=".49609"/>
<stop stop-color="#cccecf" offset=".5"/>
<stop stop-color="#cccdcf" offset=".50391"/>
<stop stop-color="#cbcdcf" offset=".50781"/>
<stop stop-color="#cbccce" offset=".51172"/>
<stop stop-color="#cacbcd" offset=".51562"/>
<stop stop-color="#c9cbcc" offset=".51953"/>
<stop stop-color="#c8cacb" offset=".52344"/>
<stop stop-color="#c8c9cb" offset=".52734"/>
<stop stop-color="#c7c8ca" offset=".53125"/>
<stop stop-color="#c6c8ca" offset=".53516"/>
<stop stop-color="#c5c7c9" offset=".53906"/>
<stop stop-color="#c5c7c9" offset=".54297"/>
<stop stop-color="#c5c6c8" offset=".54688"/>
<stop stop-color="#c4c5c7" offset=".55078"/>
<stop stop-color="#c3c5c6" offset=".55469"/>
<stop stop-color="#c2c4c6" offset=".55859"/>
<stop stop-color="#c1c3c5" offset=".5625"/>
<stop stop-color="#c1c3c5" offset=".56641"/>
<stop stop-color="#c1c3c4" offset=".57031"/>
<stop stop-color="#c0c2c3" offset=".57422"/>
<stop stop-color="#bfc1c3" offset=".57812"/>
<stop stop-color="#bec0c2" offset=".58203"/>
<stop stop-color="#bdc0c2" offset=".58594"/>
<stop stop-color="#bdbfc1" offset=".58984"/>
<stop stop-color="#bcbec0" offset=".59375"/>
<stop stop-color="#bcbec0" offset=".625"/>
<stop stop-color="#bbbdc0" offset=".75"/>
<stop stop-color="#bbbdc0" offset="1"/>
</linearGradient>
<clipPath id="k">
<path d="m330 362h123.38v120h-123.38z"/>
</clipPath>
<clipPath id="t">
<path d="m336.77 455.18 0.019531-0.007812c3.9609-12.246 15.566-26.52 30.059-39.539 7.9844-7.1797 16.848-13.969 25.785-19.844 5.1133-3.75 25.004-17.641 35.625-21.652 7.6523-3.3164 13.949-4.7305 17.848-3.3906 2.8867 1.3438 5.2422 3.1992 7.1328 5.457-2.0586-5.9062-5.7188-10.621-11.469-13.297-3.9102-1.3398-10.203 0.066406-17.855 3.3828-10.621 4.0156-30.508 17.91-35.625 21.656-8.9375 5.875-17.797 12.668-25.785 19.84-14.488 13.023-26.098 27.293-30.059 39.539l-0.015624 0.015626c-2.9023 9.0312-2.9062 24.609 4.9961 34.582-3.3984-9.1211-2.8711-19.84-0.65625-26.742z"/>
</clipPath>
<clipPath id="x">
<path d="m336.77 455.18 0.019531-0.007812c3.9609-12.246 15.566-26.52 30.059-39.539 7.9844-7.1797 16.848-13.969 25.785-19.844 5.1133-3.75 25.004-17.641 35.625-21.652 7.6523-3.3164 13.949-4.7305 17.848-3.3906 2.8867 1.3438 5.2422 3.1992 7.1328 5.457-2.0586-5.9062-5.7188-10.621-11.469-13.297-3.9102-1.3398-10.203 0.066406-17.855 3.3828-10.621 4.0156-30.508 17.91-35.625 21.656-8.9375 5.875-17.797 12.668-25.785 19.84-14.488 13.023-26.098 27.293-30.059 39.539l-0.015624 0.015626c-2.9023 9.0312-2.9062 24.609 4.9961 34.582-3.3984-9.1211-2.8711-19.84-0.65625-26.742"/>
</clipPath>
<clipPath id="bl">
<path d="m303.29 475.89 143.76 33.016 32.43-141.32-143.76-33.02z"/>
</clipPath>
<linearGradient id="ad" x1="-.43074" x2="1.0628" gradientTransform="matrix(21.658 -94.38 94.338 21.668 383.62 451.48)" gradientUnits="userSpaceOnUse">
<stop stop-color="#1cd3ee" offset="0"/>
<stop stop-color="#1cd3ee" offset=".25"/>
<stop stop-color="#1cd3ee" offset=".28125"/>
<stop stop-color="#1cd3ee" offset=".28906"/>
<stop stop-color="#1bd2ee" offset=".29297"/>
<stop stop-color="#1bd2ed" offset=".29688"/>
<stop stop-color="#1ad1ed" offset=".30078"/>
<stop stop-color="#1ad0ec" offset=".30469"/>
<stop stop-color="#19cfec" offset=".30859"/>
<stop stop-color="#19ceeb" offset=".3125"/>
<stop stop-color="#18cdeb" offset=".31641"/>
<stop stop-color="#17cbeb" offset=".32031"/>
<stop stop-color="#17caea" offset=".32422"/>
<stop stop-color="#16c9ea" offset=".32812"/>
<stop stop-color="#16c8ea" offset=".33203"/>
<stop stop-color="#16c7ea" offset=".33594"/>
<stop stop-color="#16c6e9" offset=".33984"/>
<stop stop-color="#15c5e9" offset=".34375"/>
<stop stop-color="#15c4e8" offset=".34766"/>
<stop stop-color="#14c3e8" offset=".35156"/>
<stop stop-color="#14c2e7" offset=".35547"/>
<stop stop-color="#13c0e6" offset=".35938"/>
<stop stop-color="#13bfe6" offset=".36328"/>
<stop stop-color="#13bee5" offset=".36719"/>
<stop stop-color="#12bde5" offset=".37109"/>
<stop stop-color="#12bce4" offset=".375"/>
<stop stop-color="#11bbe4" offset=".37891"/>
<stop stop-color="#11bae4" offset=".38281"/>
<stop stop-color="#10b9e3" offset=".38672"/>
<stop stop-color="#10b8e3" offset=".39062"/>
<stop stop-color="#0fb7e2" offset=".39453"/>
<stop stop-color="#0fb7e1" offset=".39844"/>
<stop stop-color="#0eb6e1" offset=".40234"/>
<stop stop-color="#0eb5e0" offset=".40625"/>
<stop stop-color="#0db4e0" offset=".41016"/>
<stop stop-color="#0db3df" offset=".41406"/>
<stop stop-color="#0db2df" offset=".41797"/>
<stop stop-color="#0db1df" offset=".42188"/>
<stop stop-color="#0cb0df" offset=".42578"/>
<stop stop-color="#0bafdf" offset=".42969"/>
<stop stop-color="#0baede" offset=".43359"/>
<stop stop-color="#0aadde" offset=".4375"/>
<stop stop-color="#0aabdd" offset=".44141"/>
<stop stop-color="#09aadd" offset=".44531"/>
<stop stop-color="#09a9dc" offset=".44922"/>
<stop stop-color="#08a8dc" offset=".45312"/>
<stop stop-color="#08a7db" offset=".45703"/>
<stop stop-color="#07a6db" offset=".46094"/>
<stop stop-color="#07a5da" offset=".46484"/>
<stop stop-color="#07a4da" offset=".46875"/>
<stop stop-color="#06a3d9" offset=".47266"/>
<stop stop-color="#06a2d9" offset=".47656"/>
<stop stop-color="#05a0d8" offset=".48047"/>
<stop stop-color="#059fd7" offset=".48438"/>
<stop stop-color="#049ed7" offset=".48828"/>
<stop stop-color="#049ed6" offset=".49219"/>
<stop stop-color="#039dd6" offset=".49609"/>
<stop stop-color="#039cd6" offset=".5"/>
<stop stop-color="#039bd5" offset=".50391"/>
<stop stop-color="#039ad5" offset=".50781"/>
<stop stop-color="#0299d5" offset=".51172"/>
<stop stop-color="#0298d4" offset=".51562"/>
<stop stop-color="#0197d4" offset=".51953"/>
<stop stop-color="#0195d3" offset=".52344"/>
<stop stop-color="#0094d3" offset=".52734"/>
<stop stop-color="#0093d2" offset=".53125"/>
<stop stop-color="#0093d2" offset=".53516"/>
<stop stop-color="#0092d2" offset=".53906"/>
<stop stop-color="#0091d1" offset=".54297"/>
<stop stop-color="#0091d0" offset=".54688"/>
<stop stop-color="#0090cf" offset=".55078"/>
<stop stop-color="#008fcf" offset=".55469"/>
<stop stop-color="#008ece" offset=".55859"/>
<stop stop-color="#008ece" offset=".5625"/>
<stop stop-color="#008dcd" offset=".56641"/>
<stop stop-color="#008ccd" offset=".57031"/>
<stop stop-color="#008bcc" offset=".57422"/>
<stop stop-color="#008acb" offset=".57812"/>
<stop stop-color="#008acb" offset=".58203"/>
<stop stop-color="#0089ca" offset=".58594"/>
<stop stop-color="#0088ca" offset=".58984"/>
<stop stop-color="#0087c9" offset=".59375"/>
<stop stop-color="#0087c9" offset=".59766"/>
<stop stop-color="#0086c8" offset=".60156"/>
<stop stop-color="#0085c7" offset=".60547"/>
<stop stop-color="#0085c6" offset=".60938"/>
<stop stop-color="#0084c6" offset=".61328"/>
<stop stop-color="#0083c5" offset=".61719"/>
<stop stop-color="#0082c5" offset=".625"/>
<stop stop-color="#0081c4" offset=".62891"/>
<stop stop-color="#0080c4" offset=".63281"/>
<stop stop-color="#007fc3" offset=".63672"/>
<stop stop-color="#007fc3" offset=".64062"/>
<stop stop-color="#007fc3" offset=".64844"/>
<stop stop-color="#007ec2" offset=".65625"/>
<stop stop-color="#007dc1" offset=".66406"/>
<stop stop-color="#007dc1" offset=".67188"/>
<stop stop-color="#007dc0" offset=".67969"/>
<stop stop-color="#007cbf" offset=".6875"/>
<stop stop-color="#007bbf" offset=".69141"/>
<stop stop-color="#007abe" offset=".69531"/>
<stop stop-color="#007abe" offset=".70312"/>
<stop stop-color="#007abd" offset=".71094"/>
<stop stop-color="#007abd" offset=".71875"/>
<stop stop-color="#0079bc" offset=".73438"/>
<stop stop-color="#0079bc" offset=".75"/>
<stop stop-color="#0079bb" offset=".76562"/>
<stop stop-color="#0079bb" offset=".78125"/>
<stop stop-color="#0079ba" offset=".8125"/>
<stop stop-color="#0078b9" offset=".84375"/>
<stop stop-color="#0079bb" offset=".84766"/>
<stop stop-color="#007bbc" offset=".85156"/>
<stop stop-color="#007ebf" offset=".85547"/>
<stop stop-color="#0081c2" offset=".85938"/>
<stop stop-color="#0084c5" offset=".86328"/>
<stop stop-color="#0087c8" offset=".86719"/>
<stop stop-color="#008acb" offset=".87109"/>
<stop stop-color="#008dce" offset=".875"/>
<stop stop-color="#0090d1" offset=".87891"/>
<stop stop-color="#0092d3" offset=".88281"/>
<stop stop-color="#0095d6" offset=".88672"/>
<stop stop-color="#0098d9" offset=".89062"/>
<stop stop-color="#009bdc" offset=".89453"/>
<stop stop-color="#009fe0" offset=".89844"/>
<stop stop-color="#00a2e3" offset=".90234"/>
<stop stop-color="#00a5e6" offset=".90625"/>
<stop stop-color="#00a8e9" offset=".91016"/>
<stop stop-color="#00aced" offset=".91406"/>
<stop stop-color="#00aced" offset=".91797"/>
<stop stop-color="#00adee" offset=".92188"/>
<stop stop-color="#00adee" offset=".9375"/>
<stop stop-color="#00adee" offset="1"/>
</linearGradient>
<clipPath id="as">
<path d="m326 241h109.55v136h-109.55z"/>
</clipPath>
<clipPath id="bf">
<path d="m391.27 376.59c-1.0547 0-2.1172-0.074219-3.1875-0.22656-14.34-1.2266-16.461-20.168-26.199-33.258 0.6875-5.6953 0.99609-10.934 0.99609-15.742-0.003906-49.676-33.262-54.262-33.262-54.262-1.6406 4.4219-2.5625 8.3984-3.0664 11.715 3.2344-24.914 25.418-43.645 51.734-43.645 1.0898 0 2.1914 0.027343 3.2891 0.09375 24.238 1.7695 34.828 14.418 41.113 23.078 8.9492 12.562 14.941 30.953 12.145 49.977-0.85547 6.1094-2.1367 12.012-3.7852 17.594-4.582 15.531-11.973 28.562-20.801 36.469-5.832 5.2227-12.289 8.207-18.977 8.207"/>
</clipPath>
<clipPath id="v">
<path d="m391.27 376.59c-1.0547 0-2.1172-0.074219-3.1875-0.22656-14.34-1.2266-16.461-20.168-26.199-33.258 0.6875-5.6953 0.99609-10.934 0.99609-15.742-0.003906-49.676-33.262-54.262-33.262-54.262-1.6406 4.4219-2.5625 8.3984-3.0664 11.715 3.2344-24.914 25.418-43.645 51.734-43.645 1.0898 0 2.1914 0.027343 3.2891 0.09375 24.238 1.7695 34.828 14.418 41.113 23.078 8.9492 12.562 14.941 30.953 12.145 49.977-0.85547 6.1094-2.1367 12.012-3.7852 17.594-4.582 15.531-11.973 28.562-20.801 36.469-5.832 5.2227-12.289 8.207-18.977 8.207"/>
</clipPath>
<clipPath id="bh">
<path d="m434.93 224.05-129.23 20.41 23.555 149.25 129.23-20.418z"/>
</clipPath>
<linearGradient id="h" x1="-.014477" x2="1" gradientTransform="matrix(23.169 146.8 -146.73 23.18 371.23 236.29)" gradientUnits="userSpaceOnUse">
<stop stop-color="#fff" offset="0"/>
<stop stop-color="#fff" offset=".015625"/>
<stop stop-color="#fefefe" offset=".019531"/>
<stop stop-color="#fdfdfd" offset=".023438"/>
<stop stop-color="#fdfdfd" offset=".027344"/>
<stop stop-color="#fcfcfc" offset=".03125"/>
<stop stop-color="#fcfcfc" offset=".035156"/>
<stop stop-color="#fbfbfb" offset=".039062"/>
<stop stop-color="#fbfbfb" offset=".042969"/>
<stop stop-color="#fafafa" offset=".046875"/>
<stop stop-color="#fafafa" offset=".050781"/>
<stop stop-color="#f9f9f9" offset=".054688"/>
<stop stop-color="#f9f9f9" offset=".058594"/>
<stop stop-color="#f8f8f8" offset=".0625"/>
<stop stop-color="#f8f8f8" offset=".070312"/>
<stop stop-color="#f7f7f7" offset=".074219"/>
<stop stop-color="#f7f7f7" offset=".078125"/>
<stop stop-color="#f6f6f6" offset=".082031"/>
<stop stop-color="#f5f6f6" offset=".085938"/>
<stop stop-color="#f4f5f5" offset=".089844"/>
<stop stop-color="#f4f5f5" offset=".09375"/>
<stop stop-color="#f3f4f4" offset=".097656"/>
<stop stop-color="#f3f4f4" offset=".10156"/>
<stop stop-color="#f2f3f3" offset=".10547"/>
<stop stop-color="#f2f3f3" offset=".10938"/>
<stop stop-color="#f1f2f2" offset=".11328"/>
<stop stop-color="#f1f1f2" offset=".11719"/>
<stop stop-color="#f0f1f1" offset=".12109"/>
<stop stop-color="#f0f0f1" offset=".125"/>
<stop stop-color="#eff0f0" offset=".12891"/>
<stop stop-color="#efeff0" offset=".13281"/>
<stop stop-color="#eeefef" offset=".13672"/>
<stop stop-color="#eeeeef" offset=".14062"/>
<stop stop-color="#edeeee" offset=".14453"/>
<stop stop-color="#ecedee" offset=".14844"/>
<stop stop-color="#eceded" offset=".15234"/>
<stop stop-color="#ebeced" offset=".15625"/>
<stop stop-color="#ebecec" offset=".16016"/>
<stop stop-color="#ebebec" offset=".16406"/>
<stop stop-color="#eaebeb" offset=".16797"/>
<stop stop-color="#eaebeb" offset=".17188"/>
<stop stop-color="#e9eaea" offset=".17578"/>
<stop stop-color="#e9e9ea" offset=".17969"/>
<stop stop-color="#e8e8e9" offset=".18359"/>
<stop stop-color="#e8e8e9" offset=".1875"/>
<stop stop-color="#e7e7e8" offset=".19141"/>
<stop stop-color="#e7e7e8" offset=".19531"/>
<stop stop-color="#e6e6e7" offset=".19922"/>
<stop stop-color="#e6e6e7" offset=".20312"/>
<stop stop-color="#e5e5e6" offset=".20703"/>
<stop stop-color="#e4e5e6" offset=".21094"/>
<stop stop-color="#e4e4e5" offset=".21484"/>
<stop stop-color="#e3e4e5" offset=".21875"/>
<stop stop-color="#e3e3e4" offset=".22266"/>
<stop stop-color="#e2e3e4" offset=".22656"/>
<stop stop-color="#e1e2e3" offset=".23047"/>
<stop stop-color="#e1e2e3" offset=".23438"/>
<stop stop-color="#e0e1e2" offset=".24219"/>
<stop stop-color="#dfe0e1" offset=".25"/>
<stop stop-color="#dedfe0" offset=".25781"/>
<stop stop-color="#dddedf" offset=".26562"/>
<stop stop-color="#dcddde" offset=".26953"/>
<stop stop-color="#dcddde" offset=".27344"/>
<stop stop-color="#dbdcdd" offset=".27734"/>
<stop stop-color="#dbdcdd" offset=".28125"/>
<stop stop-color="#dadbdc" offset=".28906"/>
<stop stop-color="#d9dadb" offset=".29297"/>
<stop stop-color="#d9dadb" offset=".29688"/>
<stop stop-color="#d8d9da" offset=".30078"/>
<stop stop-color="#d7d9da" offset=".30469"/>
<stop stop-color="#d7d8d9" offset=".30859"/>
<stop stop-color="#d6d8d9" offset=".3125"/>
<stop stop-color="#d6d7d8" offset=".31641"/>
<stop stop-color="#d5d6d8" offset=".32031"/>
<stop stop-color="#d5d6d7" offset=".32422"/>
<stop stop-color="#d4d5d7" offset=".32812"/>
<stop stop-color="#d4d5d6" offset=".33203"/>
<stop stop-color="#d3d4d6" offset=".33594"/>
<stop stop-color="#d3d4d5" offset=".33984"/>
<stop stop-color="#d2d3d5" offset=".34375"/>
<stop stop-color="#d2d3d4" offset=".34766"/>
<stop stop-color="#d1d2d4" offset=".35156"/>
<stop stop-color="#d0d2d3" offset=".35547"/>
<stop stop-color="#d0d2d3" offset=".35938"/>
<stop stop-color="#cfd1d2" offset=".36328"/>
<stop stop-color="#cfd1d2" offset=".36719"/>
<stop stop-color="#ced0d1" offset=".37109"/>
<stop stop-color="#ced0d1" offset=".375"/>
<stop stop-color="#cdcfd0" offset=".37891"/>
<stop stop-color="#cdcfd0" offset=".38281"/>
<stop stop-color="#cccecf" offset=".38672"/>
<stop stop-color="#cccecf" offset=".39062"/>
<stop stop-color="#cbcdce" offset=".39453"/>
<stop stop-color="#cbcdce" offset=".39844"/>
<stop stop-color="#cacccd" offset=".40234"/>
<stop stop-color="#cacbcd" offset=".40625"/>
<stop stop-color="#c9cbcc" offset=".41016"/>
<stop stop-color="#c8cacc" offset=".41406"/>
<stop stop-color="#c8cacb" offset=".41797"/>
<stop stop-color="#c7c9cb" offset=".42188"/>
<stop stop-color="#c7c9ca" offset=".42578"/>
<stop stop-color="#c6c8ca" offset=".42969"/>
<stop stop-color="#c6c8c9" offset=".43359"/>
<stop stop-color="#c5c7c9" offset=".4375"/>
<stop stop-color="#c5c6c8" offset=".44141"/>
<stop stop-color="#c5c6c8" offset=".44531"/>
<stop stop-color="#c4c5c7" offset=".44922"/>
<stop stop-color="#c4c5c7" offset=".45312"/>
<stop stop-color="#c3c4c6" offset=".45703"/>
<stop stop-color="#c3c4c6" offset=".46094"/>
<stop stop-color="#c2c3c5" offset=".46484"/>
<stop stop-color="#c1c3c5" offset=".46875"/>
<stop stop-color="#c0c2c4" offset=".47656"/>
<stop stop-color="#bfc1c3" offset=".48047"/>
<stop stop-color="#bfc1c3" offset=".48438"/>
<stop stop-color="#bec0c2" offset=".49219"/>
<stop stop-color="#bdbfc1" offset=".5"/>
<stop stop-color="#bcbec0" offset=".50781"/>
<stop stop-color="#bcbec0" offset=".51562"/>
<stop stop-color="#bbbdc0" offset=".53125"/>
<stop stop-color="#bbbdc0" offset=".5625"/>
<stop stop-color="#bbbdc0" offset=".625"/>
<stop stop-color="#bbbdc0" offset=".75"/>
<stop stop-color="#bbbdc0" offset="1"/>
</linearGradient>
<clipPath id="aw">
<path d="m403 301h9v11h-9z"/>
</clipPath>
<clipPath id="ao">
<path d="m406.99 301.55c-2.1172 0.21875-3.6172 2.5664-3.3398 5.2383s2.2148 4.6641 4.3359 4.4453c2.1211-0.21875 3.6172-2.5625 3.3438-5.2383-0.27344-2.6719-2.2148-4.6641-4.3398-4.4453z"/>
</clipPath>
<clipPath id="ax">
<path d="m406.99 301.55c-2.1172 0.21875-3.6172 2.5664-3.3398 5.2383s2.2148 4.6641 4.3359 4.4453c2.1211-0.21875 3.6172-2.5625 3.3438-5.2383-0.27344-2.6719-2.2148-4.6641-4.3398-4.4453"/>
</clipPath>
<clipPath id="bc">
<path d="m404.04 313.36 10.816-2.7266-3.918-11.203-10.82 2.7227z"/>
</clipPath>
<linearGradient id="ah" x1=".10106" x2=".63312" gradientTransform="matrix(-7.373 -21.065 27.236 -6.868 410.2 314.13)" gradientUnits="userSpaceOnUse">
<stop stop-color="#13c2e7" offset="0"/>
<stop stop-color="#13c1e7" offset=".015625"/>
<stop stop-color="#13c0e6" offset=".019531"/>
<stop stop-color="#13c0e6" offset=".023438"/>
<stop stop-color="#13bfe6" offset=".03125"/>
<stop stop-color="#13bfe5" offset=".039062"/>
<stop stop-color="#12bee5" offset=".046875"/>
<stop stop-color="#12bde4" offset=".054688"/>
<stop stop-color="#12bce4" offset=".0625"/>
<stop stop-color="#11bce4" offset=".066406"/>
<stop stop-color="#11bbe3" offset=".070312"/>
<stop stop-color="#11bbe3" offset=".078125"/>
<stop stop-color="#11bae3" offset=".085938"/>
<stop stop-color="#11bae3" offset=".09375"/>
<stop stop-color="#10b9e3" offset=".10156"/>
<stop stop-color="#10b8e2" offset=".10938"/>
<stop stop-color="#10b8e2" offset=".11719"/>
<stop stop-color="#0fb7e2" offset=".125"/>
<stop stop-color="#0fb6e1" offset=".13281"/>
<stop stop-color="#0fb5e1" offset=".14062"/>
<stop stop-color="#0eb5e1" offset=".14453"/>
<stop stop-color="#0eb4e0" offset=".14844"/>
<stop stop-color="#0eb4e0" offset=".15625"/>
<stop stop-color="#0eb3e0" offset=".16406"/>
<stop stop-color="#0db2e0" offset=".17188"/>
<stop stop-color="#0db1df" offset=".1875"/>
<stop stop-color="#0cb0df" offset=".19141"/>
<stop stop-color="#0bafdf" offset=".19531"/>
<stop stop-color="#0bafdf" offset=".20312"/>
<stop stop-color="#0baedf" offset=".21094"/>
<stop stop-color="#0baede" offset=".21875"/>
<stop stop-color="#0aadde" offset=".22656"/>
<stop stop-color="#0aacde" offset=".23438"/>
<stop stop-color="#0aacdd" offset=".24219"/>
<stop stop-color="#09abdd" offset=".25"/>
<stop stop-color="#09aadd" offset=".25781"/>
<stop stop-color="#09a9dc" offset=".26562"/>
<stop stop-color="#08a9dc" offset=".27344"/>
<stop stop-color="#08a8dc" offset=".28125"/>
<stop stop-color="#08a7db" offset=".29688"/>
<stop stop-color="#07a6db" offset=".30469"/>
<stop stop-color="#07a5da" offset=".3125"/>
<stop stop-color="#06a4da" offset=".31641"/>
<stop stop-color="#06a3da" offset=".32031"/>
<stop stop-color="#06a3da" offset=".32812"/>
<stop stop-color="#06a3d9" offset=".33594"/>
<stop stop-color="#06a2d9" offset=".34375"/>
<stop stop-color="#06a1d9" offset=".35156"/>
<stop stop-color="#06a0d8" offset=".35938"/>
<stop stop-color="#05a0d8" offset=".36719"/>
<stop stop-color="#059fd7" offset=".375"/>
<stop stop-color="#059ed7" offset=".38281"/>
<stop stop-color="#049ed7" offset=".39062"/>
<stop stop-color="#049dd6" offset=".39453"/>
<stop stop-color="#049dd6" offset=".39844"/>
<stop stop-color="#049cd6" offset=".40625"/>
<stop stop-color="#039bd6" offset=".42188"/>
<stop stop-color="#039ad5" offset=".42969"/>
<stop stop-color="#0299d5" offset=".4375"/>
<stop stop-color="#0298d4" offset=".44141"/>
<stop stop-color="#0297d4" offset=".44531"/>
<stop stop-color="#0297d4" offset=".45312"/>
<stop stop-color="#0197d4" offset=".46094"/>
<stop stop-color="#0196d3" offset=".46875"/>
<stop stop-color="#0195d3" offset=".47656"/>
<stop stop-color="#0094d3" offset=".48047"/>
<stop stop-color="#0094d2" offset=".48438"/>
<stop stop-color="#0094d2" offset=".49219"/>
<stop stop-color="#0093d2" offset=".5"/>
<stop stop-color="#0092d2" offset=".51562"/>
<stop stop-color="#0092d1" offset=".51953"/>
<stop stop-color="#0092d1" offset=".52344"/>
<stop stop-color="#0091d1" offset=".53125"/>
<stop stop-color="#0091d1" offset=".53906"/>
<stop stop-color="#0090d0" offset=".54688"/>
<stop stop-color="#008fcf" offset=".5625"/>
<stop stop-color="#008fcf" offset=".57031"/>
<stop stop-color="#008ecf" offset=".57812"/>
<stop stop-color="#008ece" offset=".58594"/>
<stop stop-color="#008dce" offset=".59375"/>
<stop stop-color="#008dcd" offset=".60156"/>
<stop stop-color="#008ccd" offset=".60547"/>
<stop stop-color="#008bcd" offset=".60938"/>
<stop stop-color="#008bcc" offset=".61719"/>
<stop stop-color="#008bcc" offset=".62109"/>
<stop stop-color="#008acb" offset=".625"/>
<stop stop-color="#008acb" offset=".64062"/>
<stop stop-color="#0089ca" offset=".64453"/>
<stop stop-color="#0088ca" offset=".64844"/>
<stop stop-color="#0088ca" offset=".65625"/>
<stop stop-color="#0088ca" offset=".67188"/>
<stop stop-color="#0087c9" offset=".67969"/>
<stop stop-color="#0086c8" offset=".6875"/>
<stop stop-color="#0086c8" offset=".69141"/>
<stop stop-color="#0085c8" offset=".69531"/>
<stop stop-color="#0085c8" offset=".70312"/>
<stop stop-color="#0085c7" offset=".71094"/>
<stop stop-color="#0085c7" offset=".71875"/>
<stop stop-color="#0084c6" offset=".72656"/>
<stop stop-color="#0084c6" offset=".73438"/>
<stop stop-color="#0083c6" offset=".75"/>
<stop stop-color="#0082c5" offset=".75781"/>
<stop stop-color="#0081c5" offset=".76562"/>
<stop stop-color="#0080c4" offset=".76953"/>
<stop stop-color="#0080c4" offset=".77344"/>
<stop stop-color="#0080c4" offset=".78125"/>
<stop stop-color="#007fc4" offset=".78906"/>
<stop stop-color="#007fc3" offset=".79688"/>
<stop stop-color="#007ec3" offset=".8125"/>
<stop stop-color="#007ec2" offset=".82812"/>
<stop stop-color="#007ec2" offset=".84375"/>
<stop stop-color="#007dc1" offset=".85938"/>
<stop stop-color="#007dc1" offset=".875"/>
<stop stop-color="#007dc0" offset=".89062"/>
<stop stop-color="#007dc0" offset=".90625"/>
<stop stop-color="#007cbf" offset=".9375"/>
<stop stop-color="#007bbe" offset=".95312"/>
<stop stop-color="#007bbe" offset=".96875"/>
<stop stop-color="#007abd" offset=".98438"/>
<stop stop-color="#007abd" offset="1"/>
</linearGradient>
<clipPath id="ak">
<path d="m424.08 294.33h7.918v10.195h-7.918z"/>
</clipPath>
<clipPath id="bp">
<path d="m427.57 294.55c-2.1211 0.21875-3.6172 2.5625-3.3438 5.2383 0.27344 2.6719 2.2188 4.6602 4.3398 4.4414 2.1172-0.21484 3.6172-2.5586 3.3359-5.2344-0.27344-2.6719-2.2148-4.6641-4.332-4.4453z"/>
</clipPath>
<clipPath id="y">
<path d="m427.57 294.55c-2.1211 0.21875-3.6172 2.5625-3.3438 5.2383 0.27344 2.6719 2.2188 4.6602 4.3398 4.4414 2.1172-0.21484 3.6172-2.5586 3.3359-5.2344-0.27344-2.6719-2.2148-4.6641-4.332-4.4453"/>
</clipPath>
<clipPath id="af">
<path d="m424.61 306.36 10.816-2.7305-3.918-11.199-10.82 2.7266z"/>
</clipPath>
<linearGradient id="s" x1=".18056" x2=".71096" gradientTransform="matrix(-7.3725 -21.063 27.234 -6.8675 431.35 308.79)" gradientUnits="userSpaceOnUse">
<stop stop-color="#0eb4e0" offset="0"/>
<stop stop-color="#0eb3e0" offset=".015625"/>
<stop stop-color="#0db2e0" offset=".019531"/>
<stop stop-color="#0db2df" offset=".023438"/>
<stop stop-color="#0db2df" offset=".03125"/>
<stop stop-color="#0db1df" offset=".039062"/>
<stop stop-color="#0cb0df" offset=".046875"/>
<stop stop-color="#0cafdf" offset=".054688"/>
<stop stop-color="#0bafdf" offset=".0625"/>
<stop stop-color="#0baede" offset=".070312"/>
<stop stop-color="#0badde" offset=".074219"/>
<stop stop-color="#0aacde" offset=".078125"/>
<stop stop-color="#0aacdd" offset=".09375"/>
<stop stop-color="#0aabdd" offset=".10156"/>
<stop stop-color="#09aadd" offset=".10547"/>
<stop stop-color="#09aadd" offset=".10938"/>
<stop stop-color="#09a9dc" offset=".11328"/>
<stop stop-color="#09a9dc" offset=".11719"/>
<stop stop-color="#08a9dc" offset=".125"/>
<stop stop-color="#08a8dc" offset=".13281"/>
<stop stop-color="#08a7db" offset=".14062"/>
<stop stop-color="#07a6db" offset=".14453"/>
<stop stop-color="#07a6db" offset=".14844"/>
<stop stop-color="#07a6db" offset=".15625"/>
<stop stop-color="#07a5da" offset=".16406"/>
<stop stop-color="#06a4da" offset=".17188"/>
<stop stop-color="#06a3da" offset=".17969"/>
<stop stop-color="#06a3d9" offset=".1875"/>
<stop stop-color="#06a2d9" offset=".19531"/>
<stop stop-color="#06a1d9" offset=".19922"/>
<stop stop-color="#06a1d9" offset=".20312"/>
<stop stop-color="#05a0d8" offset=".21094"/>
<stop stop-color="#05a0d8" offset=".21875"/>
<stop stop-color="#059fd7" offset=".22656"/>
<stop stop-color="#049ed7" offset=".23047"/>
<stop stop-color="#049ed7" offset=".23438"/>
<stop stop-color="#049dd7" offset=".25"/>
<stop stop-color="#049cd6" offset=".25781"/>
<stop stop-color="#039bd6" offset=".26562"/>
<stop stop-color="#039bd6" offset=".27344"/>
<stop stop-color="#039ad5" offset=".28125"/>
<stop stop-color="#0299d5" offset=".28906"/>
<stop stop-color="#0298d4" offset=".29688"/>
<stop stop-color="#0197d4" offset=".3125"/>
<stop stop-color="#0196d4" offset=".31641"/>
<stop stop-color="#0196d3" offset=".32031"/>
<stop stop-color="#0195d3" offset=".32422"/>
<stop stop-color="#0195d3" offset=".32812"/>
<stop stop-color="#0094d3" offset=".33594"/>
<stop stop-color="#0094d2" offset=".34375"/>
<stop stop-color="#0093d2" offset=".35156"/>
<stop stop-color="#0092d2" offset=".35938"/>
<stop stop-color="#0092d1" offset=".375"/>
<stop stop-color="#0091d1" offset=".38281"/>
<stop stop-color="#0091d1" offset=".39062"/>
<stop stop-color="#0090d0" offset=".39844"/>
<stop stop-color="#0090d0" offset=".40625"/>
<stop stop-color="#008fcf" offset=".41406"/>
<stop stop-color="#008fcf" offset=".42188"/>
<stop stop-color="#008ecf" offset=".42969"/>
<stop stop-color="#008ece" offset=".4375"/>
<stop stop-color="#008dce" offset=".44531"/>
<stop stop-color="#008dcd" offset=".45312"/>
<stop stop-color="#008ccd" offset=".46094"/>
<stop stop-color="#008bcc" offset=".46875"/>
<stop stop-color="#008bcc" offset=".47656"/>
<stop stop-color="#008acb" offset=".48438"/>
<stop stop-color="#008acb" offset=".49219"/>
<stop stop-color="#0089cb" offset=".5"/>
<stop stop-color="#0089ca" offset=".50781"/>
<stop stop-color="#0088ca" offset=".51562"/>
<stop stop-color="#0088c9" offset=".52344"/>
<stop stop-color="#0087c9" offset=".53125"/>
<stop stop-color="#0086c8" offset=".54688"/>
<stop stop-color="#0085c8" offset=".5625"/>
<stop stop-color="#0085c7" offset=".57031"/>
<stop stop-color="#0084c6" offset=".57812"/>
<stop stop-color="#0084c6" offset=".58594"/>
<stop stop-color="#0083c5" offset=".59375"/>
<stop stop-color="#0082c5" offset=".60156"/>
<stop stop-color="#0082c5" offset=".60938"/>
<stop stop-color="#0081c5" offset=".61719"/>
<stop stop-color="#0081c4" offset=".625"/>
<stop stop-color="#0080c4" offset=".63281"/>
<stop stop-color="#0080c4" offset=".64062"/>
<stop stop-color="#007fc3" offset=".65625"/>
<stop stop-color="#007ec2" offset=".67188"/>
<stop stop-color="#007ec2" offset=".6875"/>
<stop stop-color="#007ec1" offset=".70312"/>
<stop stop-color="#007dc1" offset=".71875"/>
<stop stop-color="#007dc1" offset=".75"/>
<stop stop-color="#007cc0" offset=".76562"/>
<stop stop-color="#007cc0" offset=".78125"/>
<stop stop-color="#007bbf" offset=".8125"/>
<stop stop-color="#007abe" offset=".82812"/>
<stop stop-color="#007abe" offset=".84375"/>
<stop stop-color="#007abd" offset=".85938"/>
<stop stop-color="#007abd" offset=".875"/>
<stop stop-color="#0079bc" offset=".90625"/>
<stop stop-color="#0079bc" offset=".9375"/>
<stop stop-color="#0079bb" offset="1"/>
</linearGradient>
<clipPath id="o">
<path d="m502 708.54h39.285v20.648h-39.285z"/>
</clipPath>
<clipPath id="au">
<path d="m545.11 534h36.383v169h-36.383z"/>
</clipPath>
<clipPath id="ac">
<path d="m500 421h4v2h-4z"/>
</clipPath>
<clipPath id="an">
<path d="m500.42 422.45v-1.0391c0.72656-0.10156 1.4609-0.15234 2.1914-0.15234 0.33203 0 0.67188 0.011719 1.0039 0.035157-1.0898 0.35938-2.1602 0.73828-3.1953 1.1562"/>
</clipPath>
<clipPath id="bg">
<path d="m500.42 422.45v-1.0391c0.72656-0.10156 1.4609-0.15234 2.1914-0.15234 0.33203 0 0.67188 0.011719 1.0039 0.035157-1.0898 0.35938-2.1602 0.73828-3.1953 1.1562"/>
</clipPath>
<clipPath id="z">
<path d="m487 425h5v15h-5z"/>
</clipPath>
<clipPath id="ar">
<path d="m489.32 439.81c-1.082-2.0547-1.6953-4.418-1.5547-6.8672 0.10938-2.4531 1.1602-4.9258 2.8477-6.7461 0.36719-0.41016 0.75781-0.78125 1.1719-1.1367v3.043c-1.1797 1.4492-1.9844 3.1562-2.3672 5.043-0.41797 2.1055-0.32812 4.3555-0.097656 6.6641"/>
</clipPath>
<clipPath id="am">
<path d="m489.32 439.81c-1.082-2.0547-1.6953-4.418-1.5547-6.8672 0.10938-2.4531 1.1602-4.9258 2.8477-6.7461 0.36719-0.41016 0.75781-0.78125 1.1719-1.1367v3.043c-1.1797 1.4492-1.9844 3.1562-2.3672 5.043-0.41797 2.1055-0.32812 4.3555-0.097656 6.6641"/>
</clipPath>
<clipPath id="g">
<path d="m491.6 421h8.918v7.1523h-8.918z"/>
</clipPath>
<clipPath id="i">
<path d="m491.78 428.11v-3.043c1.4609-1.2461 3.1641-2.1445 4.9102-2.7539 1.2188-0.42188 2.4688-0.73047 3.7305-0.89844v1.0391c-1.0547 0.42188-2.082 0.87891-3.0742 1.3867-1.9492 1.0234-3.7578 2.2383-5.1562 3.7891-0.14453 0.16016-0.27734 0.32031-0.41016 0.48047"/>
</clipPath>
<clipPath id="bk">
<path d="m491.78 428.11v-3.043c1.4609-1.2461 3.1641-2.1445 4.9102-2.7539 1.2188-0.42188 2.4688-0.73047 3.7305-0.89844v1.0391c-1.0547 0.42188-2.082 0.87891-3.0742 1.3867-1.9492 1.0234-3.7578 2.2383-5.1562 3.7891-0.14453 0.16016-0.27734 0.32031-0.41016 0.48047"/>
</clipPath>
<clipPath id="a">
<path d="m475.04 416h10.961v26h-10.961z"/>
</clipPath>
<clipPath id="bq">
<path d="m477.82 441.32c-1.6328-3.125-2.5742-6.7266-2.3555-10.449 0.17187-3.7227 1.7617-7.4766 4.3242-10.262 1.5977-1.7578 3.4883-3.1602 5.5117-4.2617v3.6289c-1.1328 0.85156-2.1758 1.7852-3.1016 2.8164-2.1445 2.3438-3.5781 5.1992-4.2188 8.3906-0.63672 3.1992-0.50391 6.6211-0.16016 10.137"/>
</clipPath>
<clipPath id="ab">
<path d="m477.82 441.32c-1.6328-3.125-2.5742-6.7266-2.3555-10.449 0.17187-3.7227 1.7617-7.4766 4.3242-10.262 1.5977-1.7578 3.4883-3.1602 5.5117-4.2617v3.6289c-1.1328 0.85156-2.1758 1.7852-3.1016 2.8164-2.1445 2.3438-3.5781 5.1992-4.2188 8.3906-0.63672 3.1992-0.50391 6.6211-0.16016 10.137"/>
</clipPath>
<clipPath id="aj">
<path d="m485.23 413h6.7695v7h-6.7695z"/>
</clipPath>
<clipPath id="q">
<path d="m485.3 419.97v-3.6289c1.207-0.65234 2.4648-1.1992 3.7422-1.6406 0.89844-0.31641 1.8164-0.58984 2.7422-0.8125v2.2852c-0.59375 0.26953-1.1758 0.55078-1.75 0.84766-1.6719 0.875-3.2734 1.8477-4.7344 2.9492"/>
</clipPath>
<clipPath id="bj">
<path d="m485.3 419.97v-3.6289c1.207-0.65234 2.4648-1.1992 3.7422-1.6406 0.89844-0.31641 1.8164-0.58984 2.7422-0.8125v2.2852c-0.59375 0.26953-1.1758 0.55078-1.75 0.84766-1.6719 0.875-3.2734 1.8477-4.7344 2.9492"/>
</clipPath>
<clipPath id="m">
<path d="m491.6 413h8.3984v3.6836h-8.3984z"/>
</clipPath>
<clipPath id="aa">
<path d="m491.78 416.18v-2.2852c2.0586-0.50781 4.1602-0.78516 6.2539-0.78516 0.51172 0 1.0195 0.011719 1.5273 0.046875-2.7031 0.88672-5.3047 1.875-7.7812 3.0234"/>
</clipPath>
<clipPath id="ay">
<path d="m491.78 416.18v-2.2852c2.0586-0.50781 4.1602-0.78516 6.2539-0.78516 0.51172 0 1.0195 0.011719 1.5273 0.046875-2.7031 0.88672-5.3047 1.875-7.7812 3.0234"/>
</clipPath>
<clipPath id="r">
<path d="m461.03 400.11h24.973v40.785h-24.973z"/>
</clipPath>
<clipPath id="n">
<path d="m464.51 440.43c-2.3438-4.4844-3.6914-9.6406-3.3789-14.98 0.24219-5.3359 2.5234-10.723 6.2031-14.703 3.6602-4.0312 8.3789-6.7734 13.254-8.4688 1.5508-0.53906 3.1211-0.99219 4.7109-1.3516v3.1094c-1.1133 0.49609-2.207 1.0234-3.2812 1.5703-4.25 2.2266-8.1875 4.8789-11.234 8.2617-3.0703 3.3594-5.1211 7.457-6.0469 12.031-0.91016 4.582-0.71875 9.4961-0.22656 14.531"/>
</clipPath>
<clipPath id="d">
<path d="m464.51 440.43c-2.3438-4.4844-3.6914-9.6406-3.3789-14.98 0.24219-5.3359 2.5234-10.723 6.2031-14.703 3.6602-4.0312 8.3789-6.7734 13.254-8.4688 1.5508-0.53906 3.1211-0.99219 4.7109-1.3516v3.1094c-1.1133 0.49609-2.207 1.0234-3.2812 1.5703-4.25 2.2266-8.1875 4.8789-11.234 8.2617-3.0703 3.3594-5.1211 7.457-6.0469 12.031-0.91016 4.582-0.71875 9.4961-0.22656 14.531"/>
</clipPath>
<clipPath id="ap">
<path d="m485.23 400h6.7695v5h-6.7695z"/>
</clipPath>
<clipPath id="ag">
<path d="m485.3 404.04v-3.1094c2.1367-0.48047 4.3086-0.78906 6.4844-0.89453v1.375c-2.2227 0.80859-4.3867 1.6758-6.4844 2.6289"/>
</clipPath>
<clipPath id="e">
<path d="m485.3 404.04v-3.1094c2.1367-0.48047 4.3086-0.78906 6.4844-0.89453v1.375c-2.2227 0.80859-4.3867 1.6758-6.4844 2.6289"/>
</clipPath>
<clipPath id="aq">
<path d="m491.6 399h4.3984v3h-4.3984z"/>
</clipPath>
<clipPath id="bn">
<path d="m491.78 401.41v-1.375c0.57031-0.03125 1.1445-0.046875 1.7148-0.046875 0.73047 0 1.457 0.027344 2.1836 0.070313-1.3164 0.43359-2.6172 0.88281-3.8984 1.3516"/>
</clipPath>
<clipPath id="ai">
<path d="m491.78 401.41v-1.375c0.57031-0.03125 1.1445-0.046875 1.7148-0.046875 0.73047 0 1.457 0.027344 2.1836 0.070313-1.3164 0.43359-2.6172 0.88281-3.8984 1.3516"/>
</clipPath>
</defs>
<path d="m257.09 266.93 234.69-135.56v390.6l-234.69 135.56v-390.6" fill="#5fc5f2"/>
<path d="m485.3 129.47v402.47l7.3438-4.2461v-402.56l-7.3438 4.3398" fill="#386f8e"/>
<g clip-path="url(#b)">
<path d="m257.09 657.64v-390.6l221.5-127.94v-19.199l14.047-9.293-21.332-9.7227-0.011719 0.003907c-4.3945-2.4531-10.398-2.0781-17.008 1.7383l-203.36 117.46c-13.363 7.7227-24.309 26.68-24.305 42.121v390.29c0 7.7305 2.7422 13.176 7.168 15.715l0.11328 0.054688c0.55859 0.31641 1.1445 0.57812 1.7578 0.79688l19.672 8.9531-1.1797-13.348 200.14-115.6c5.2773-3.0508 10.16-7.8633 14.156-13.512l-211.35 122.09" fill="#9ac4ee"/>
</g>
<path d="m236.8 313.56 2.2227 1.2812c2.4492 1.4141 4.4492 4.8789 4.4492 7.707v24.82c0 2.8281-2 3.9844-4.4492 2.5742l-2.2227-1.2852c-2.4453-1.4141-4.4453-4.8789-4.4453-7.707v-24.828c0-2.8203 2-3.9766 4.4453-2.5625" fill="#386f8e"/>
<path d="m236.8 361.07 2.2227 1.2812c2.4492 1.4141 4.4492 4.8789 4.4492 7.707v24.824c0 2.8281-2 3.9844-4.4492 2.5742l-2.2227-1.2852c-2.4453-1.4141-4.4453-4.8789-4.4453-7.707v-24.82c0-2.8281 2-3.9844 4.4453-2.5742" fill="#386f8e"/>
<path d="m491.78 522.08-234.69 135.56v-390.6l234.69-135.56v390.6m-15.668-409.47-203.36 117.46c-13.367 7.7266-24.305 26.68-24.305 42.117v390.29c0 15.445 10.938 21.762 24.305 14.039l203.36-117.47c13.371-7.7148 24.309-26.668 24.309-42.113v-390.29c-0.003906-15.441-10.938-21.762-24.309-14.035" fill="#e3f2ff"/>
<path d="m443.01 184.19v78.312l104.86-60.57v-78.305l-104.86 60.562" fill="#e59c45"/>
<path d="m438.12 181.37v78.309l4.8828 2.8203v-78.312l-4.8828-2.8164" fill="#d89339"/>
<path d="m542.99 120.8 4.875 2.8203-104.86 60.562-4.8828-2.8164 104.87-60.566" fill="#f7d2a1"/>
<path d="m443.01 184.19 52.43 8.8711 52.43-69.434z" fill="#fbb040"/>
<path d="m234.88 313.56 2.2188 1.2812c2.4492 1.4141 4.4492 4.8789 4.4492 7.707v24.82c0 2.8281-2 3.9844-4.4492 2.5742l-2.2188-1.2852c-2.4492-1.4141-4.4492-4.8789-4.4492-7.707v-24.828c0-2.8203 2-3.9766 4.4492-2.5625" fill="#e3f2ff"/>
<path d="m234.88 361.07 2.2188 1.2812c2.4492 1.4141 4.4492 4.8789 4.4492 7.707v24.824c0 2.8281-2 3.9844-4.4492 2.5742l-2.2188-1.2852c-2.4492-1.4141-4.4492-4.8789-4.4492-7.707v-24.82c0-2.8281 2-3.9844 4.4492-2.5742" fill="#e3f2ff"/>
<path d="m452.93 484.26-24.59 14.199c-0.13672-0.16016-0.28125-0.29297-0.42578-0.45703 0.17188-0.40625 0.34766-0.76953 0.51562-1.1562l-0.074219 0.16797 24.555-14.184c0.16797 0.14062 0.33594 0.28516 0.50781 0.43359-0.16016 0.33594-0.32422 0.67188-0.48828 0.99609zm-1.3438 2.5898-22.117 12.773 0.17969 0.16406c-0.35547-0.32812-0.71875-0.69531-1.0781-1.0898l24.086-13.906c-0.35938 0.70703-0.71484 1.3906-1.0703 2.0586zm-1.4922 2.6836-19.344 11.164 0.27344 0.19141c-0.43359-0.30078-0.86719-0.65234-1.293-1.0312l21.555-12.457c-0.40234 0.73828-0.80078 1.4492-1.1914 2.1328zm-1.7227 2.8125-16.109 9.3008 0.13281 0.058593c-0.44531-0.21875-0.89844-0.49219-1.3477-0.79688l18.707-10.805c-0.46484 0.78125-0.92578 1.5234-1.3828 2.2422zm-2.1367 3.043-12.016 6.9453c-0.53516-0.11719-1.0547-0.28906-1.5781-0.53125l15.328-8.8555c-0.58203 0.875-1.1602 1.6875-1.7344 2.4414zm-3.3086 3.7383-5.5586 3.207c-0.89062 0.19141-1.7812 0.23047-2.6562 0.097656l10.992-6.3477c-0.9375 1.1758-1.8633 2.1797-2.7773 3.043zm-3.332 2.418c-0.25391 0.12891-0.50391 0.21484-0.75781 0.32031l2.6758-1.543c-0.64062 0.48828-1.2891 0.89844-1.918 1.2227zm-1.9141 0.71875c0.23438-0.0625 0.46875-0.125 0.70703-0.21094-0.23828 0.085937-0.47266 0.14844-0.70703 0.21094zm-0.23828-19.586 5.3984-3.1172c0.93359-0.22266 1.8711-0.28516 2.8164-0.19531l-10.91 6.3086c0.89062-1.1641 1.7891-2.1562 2.6953-2.9961zm0.96094-0.84375c-0.22266 0.1875-0.44922 0.37891-0.67578 0.57812 0.22266-0.19922 0.45312-0.39844 0.67578-0.57812zm1.1914-0.875c0.58203-0.36719 1.168-0.67578 1.7617-0.91406l-2.3359 1.3359c0.19531-0.13281 0.38281-0.29687 0.57422-0.42187zm8.3438-1.0898-15.27 8.8281c0.53125-0.84766 1.0586-1.6328 1.5898-2.3594l11.938-6.9023c0.57812 0.089844 1.1602 0.23828 1.7422 0.43359zm1.793 0.78516-18.656 10.781c-0.10156 0.18359-0.19922 0.36328-0.30469 0.54297l19.293-11.137c0.40234 0.22266 0.80078 0.47266 1.2031 0.73828l-21.523 12.434c0.89844-1.832 1.8047-3.5 2.7148-4.9883l-0.16406 0.26172 16.043-9.2695c0.46094 0.17969 0.92578 0.38281 1.3945 0.63672zm2.9062 1.9531-24.051 13.898c0.34766-0.77344 0.69531-1.5352 1.0469-2.2656l-0.14453 0.30078 22.07-12.75c0.35937 0.25 0.71875 0.52344 1.0781 0.81641zm-25.895 16.777-33.527 19.355c0.12891 0.054687 0.26172 0.10937 0.38672 0.16406l32.941-19.031c-0.24609 0.61328-0.49219 1.2227-0.73437 1.8633l-30.793 17.785c0.11328 0.066406 0.23438 0.11719 0.34766 0.17969l30.254-17.48-0.11328 0.31641c-0.20703 0.53125-0.42188 1.043-0.63281 1.5586l-28.238 16.32c-0.37891-0.21484-0.74219-0.39453-1.1289-0.62891-1.0078-0.52344-2.0078-0.94531-3.0039-1.2852 0.99219-1.5234 1.9961-3.1328 3.0039-4.8438 4.707-7.9766 8.6328-13.641 12.07-17.375l9.875-5.6953c0.63672 0.03125 1.2578 0.14844 1.875 0.35938l-14.168 8.1836c-0.17969 0.23047-0.35938 0.45313-0.54297 0.6875l15.109-8.7227c0.4375 0.17578 0.875 0.41406 1.3125 0.68359l-18.277 10.555c-0.15625 0.20703-0.30859 0.42187-0.45703 0.64062l19.055-11.004c0.35156 0.23828 0.70313 0.51953 1.0586 0.82812l-21.727 12.547c-0.13281 0.20312-0.26953 0.40625-0.41016 0.60938l22.406-12.938c0.30859 0.27734 0.60937 0.58594 0.91406 0.91016l-24.793 14.32c-0.12109 0.20312-0.24609 0.39062-0.37109 0.59766l25.395-14.668c0.27344 0.30469 0.54688 0.61719 0.82422 0.96484l-27.598 15.934c-0.11328 0.19141-0.23047 0.38672-0.35156 0.58594l28.152-16.266c0.21484 0.26953 0.42969 0.54687 0.64453 0.85156l0.11328 0.15625-30.215 17.441c-0.11719 0.19922-0.23438 0.39453-0.34375 0.58594l30.738-17.754c0.24219 0.34766 0.49219 0.6875 0.73438 1.0078l-32.836 18.969c-0.12891 0.20703-0.25 0.39844-0.375 0.59375l33.41-19.293c0.13672 0.17188 0.26953 0.33594 0.40625 0.49219-0.13281 0.31641-0.26172 0.61719-0.39062 0.9375zm-2.9102 7.1289-25.578 14.777 0.1875 0.09375c-0.48047-0.23438-0.98438-0.51953-1.4805-0.79297l27.703-15.996c-0.28125 0.66016-0.55469 1.2969-0.83203 1.918zm-1.1641 2.4883-22.637 13.07c-0.46484-0.18359-0.9375-0.38281-1.4141-0.61328l24.984-14.434c-0.31641 0.68359-0.62109 1.3438-0.93359 1.9766zm-1.3633 2.6094-19.297 11.145c-0.52734-0.15625-1.0625-0.30859-1.6094-0.51953h0.011719l21.984-12.695c-0.35938 0.71875-0.72266 1.4102-1.0898 2.0703zm-1.6758 2.7773-15.34 8.8672c-0.60156-0.082031-1.2148-0.20312-1.8398-0.37109l18.531-10.711c-0.44922 0.78906-0.89453 1.5234-1.3516 2.2148zm-2.3516 3.1758-10.074 5.8203c-0.77734 0.0625-1.5742 0.035156-2.3906-0.046875l14.402-8.3242c-0.63281 0.92578-1.2734 1.7812-1.9375 2.5508zm-3.5977 3.418c-1.7891 1.2773-3.6758 2.0312-5.668 2.3203l8.6016-4.9688c-0.96094 1.0391-1.9375 1.9258-2.9336 2.6484zm-6.2539 2.4023c0.11719-0.011719 0.23828-0.023438 0.35938-0.039063-0.12109 0.015625-0.24219 0.027344-0.35938 0.039063zm6.6328-32.145c0.93359-0.39453 1.8398-0.60938 2.7383-0.65234l-8.4414 4.875c-0.17969 0.18359-0.36328 0.37891-0.54687 0.57031 2.2656-2.4141 4.3203-3.9805 6.25-4.793zm-23.379 28.969-25.672 14.828c0.17188 0.035157 0.34375 0.0625 0.51562 0.089844l24.699-14.273c-0.63672 0.89062-1.2656 1.7305-1.8945 2.5391l-20.664 11.926 0.21094 0.007813c-1.3555-0.042969-2.7422-0.21094-4.1719-0.52344 0.18359-0.26953 0.375-0.5 0.55469-0.76172l26.289-15.191c0.29688 0.074219 0.60156 0.16406 0.89844 0.26172-0.25391 0.36719-0.50781 0.73438-0.76562 1.0977zm-5.4688 6.793-14.137 8.168c0.17188-0.023437 0.34375-0.054687 0.51172-0.085937-1.0703 0.17969-2.1602 0.25391-3.2695 0.24219l19.438-11.227c-0.84766 1.0391-1.6914 2.0117-2.543 2.9023zm-6.9336 5.668-0.11328 0.066406c-1.9805 1.1289-4.0234 1.8711-6.1406 2.2695l12.348-7.1328c-2.0312 2.0195-4.0586 3.6172-6.0938 4.7969zm-3.2148-10.328 4.4141-2.5547c1.6055-0.69141 3.2148-1.1406 4.8281-1.3438l-13.887 8.0156c1.5469-1.5859 3.0938-2.9961 4.6445-4.1172zm12.523-3.9727-20.449 11.805c0.79297-0.98828 1.582-1.9453 2.375-2.8047l15.586-9.0117c0.82812-0.058594 1.6602-0.058594 2.4883 0.011719zm2.4922 0.37109-25.348 14.645c0.64063-0.90234 1.2812-1.8203 1.918-2.6367l-0.11328 0.15234 21.617-12.488c0.63672 0.070313 1.2773 0.18359 1.9258 0.32813zm-28.434 18.246-38.566 22.27c0.16406 0.03125 0.32812 0.066407 0.49609 0.10156l37.695-21.777c-0.44141 0.71094-0.89062 1.457-1.3398 2.2109l-34.59 19.977c0.15234 0.035157 0.29687 0.078125 0.44531 0.12109l33.812-19.52-0.14062 0.23828c-0.41016 0.67969-0.82422 1.3398-1.2383 1.9844l-30.691 17.734c-0.53516-0.12891-1.0625-0.21875-1.6055-0.38672-1.2891-0.39062-2.5664-0.65625-3.8281-0.8125 1.2617-1.6172 2.5391-3.3555 3.8281-5.2539 0.55469-0.80469 1.1016-1.5273 1.6523-2.2852l30.348-17.527c0.51562 0.12109 1.0352 0.26172 1.5508 0.42969l0.12109 0.042968-33.781 19.512c-0.14453 0.21484-0.28516 0.42188-0.4375 0.63281l34.621-19.996c0.54297 0.18359 1.0742 0.35547 1.6094 0.50781l-37.996 21.941c-0.16406 0.23047-0.32812 0.45313-0.49609 0.66797l38.934-22.484c0.1875 0.050782 0.38281 0.10547 0.57812 0.14844-0.32812 0.5-0.65625 1-0.98047 1.5234zm-5.4141 8.5859-26.336 15.203c-0.63281-0.085938-1.2695-0.19922-1.9102-0.33594l29.848-17.238c-0.53125 0.81641-1.0664 1.6016-1.6016 2.3711zm-2.4336 3.2148-21.082 12.172c-0.75 0.003906-1.5078-0.054688-2.2695-0.12891l25.324-14.621c-0.65625 0.89844-1.3125 1.7617-1.9727 2.5781zm-3.3789 3.7617-13.859 8.0117c-1.0352 0.20312-2.0742 0.32422-3.125 0.36719l19.762-11.414c-0.92188 1.0898-1.8438 2.1094-2.7773 3.0352zm-12.863 7.8125 11.891-6.875c-3.8125 3.5859-7.7852 5.8594-11.891 6.875zm-0.035156-19.973 10.57-6.1055c1.2266-0.35156 2.4648-0.57812 3.6953-0.69531l-17.934 10.359c1.2266-1.2891 2.4531-2.5039 3.668-3.5586zm8.9922-5.5703-7.3047 4.2266c2.4375-1.8828 4.875-3.3086 7.3047-4.2266zm8.4453-1.2422-24.336 14.059c0.83203-1.0156 1.6562-1.9688 2.4844-2.8711l19.426-11.227c0.80859-0.039062 1.6133-0.023437 2.4258 0.039063zm2.5 0.37109-29.41 16.988c0.66797-0.90234 1.3359-1.7617 2.0039-2.5938l25.465-14.711c0.64844 0.074219 1.2969 0.17578 1.9414 0.31641zm-37.82 27.301-19.336 11.16c-0.34375-0.035156-0.69531-0.035156-1.0391-0.097656 0.36328-0.48438 0.73047-0.91016 1.0938-1.3711l19.227-11.105c0.40625 0.003906 0.79688 0.019531 1.1992 0.042968-0.38281 0.47656-0.76562 0.92188-1.1445 1.3711zm-3.7305 3.9727-12.332 7.125c-0.91406 0.14453-1.8125 0.16406-2.6953 0.11719l18.094-10.457c-1.0352 1.1641-2.0547 2.2383-3.0664 3.2148zm-11.156 6.8203 10.07-5.8203c-3.4883 3.1367-6.8398 5.0273-10.07 5.8203zm11.082-11.848c1.0195-0.20312 2.0508-0.32422 3.0859-0.35547l-17.996 10.402c0.89844-1.0781 1.7969-2.1016 2.7188-3.0117zm-1.1016 0.25781-9.8711 5.6914c3.1758-2.8594 6.457-4.8008 9.8711-5.6914zm141.51-81.926-0.53906-0.125c-0.625 1.4023-1.25 2.7383-1.8633 4.0195-5.0234-4.3828-9.7148-5.1016-14.277-2.2031-4.1719 2.6562-8.2109 8.4805-12.035 17.312-0.48828-0.61328-0.97266-1.2695-1.457-1.9922-3.8281-5.293-7.6172-6.9102-11.922-5.1055-5.1211 2.1562-11.008 9.2383-19.102 22.949-1.0273 1.7617-2.0508 3.4102-3.0703 4.9531-4.832-1.5078-9.6484-0.95703-14.359 1.6602-4.8516 2.6992-9.6992 7.6172-14.457 14.672-1.0742-0.26172-2.1602-0.59766-3.2734-1.0039-11.422-3.7031-22.656 2.7891-34.355 19.844-1.375 2.0078-2.7383 3.8594-4.0781 5.5508-8.1953-0.73047-15.828 3.6641-22.781 13.133-1.1094-0.26172-2.2031-0.67578-3.2773-1.2539l-0.46094 0.80859c1.043 0.55469 2.1016 0.96875 3.168 1.2383-1.0664 1.5117-2.125 3.1367-3.168 4.8945l0.46094 0.28125c1.0742-1.8086 2.168-3.5 3.2773-5.043 6.9531 1.4414 14.586-2.9766 22.781-13.184 1.3398 0.14453 2.7031 0.42578 4.0781 0.84375 12.574 3.8984 24.145-2.7891 34.383-19.895 1.0859-1.8828 2.1719-3.6328 3.2578-5.2773 5.418 1.2344 10.355 0.53906 14.996-2.1055 4.625-2.6328 9.1719-7.3125 13.816-14.215l0.19141 0.066406-0.38281 0.21875c-0.14844 0.21875-0.28906 0.42578-0.43359 0.63281l1.2188-0.70312c0.81641 0.30469 1.6445 0.66406 2.4648 1.0859 6.8477 4.1914 12.422 4.8281 17.414 1.9453 0.4375-0.25781 0.875-0.53125 1.3086-0.83984 4.4883-3.2188 8.5195-9.4648 12.316-19.109 0.47656-1.2695 0.95703-2.4883 1.4453-3.6641 3.8242 4.4258 7.8633 5.5781 12.035 3.4102 0.15625-0.089844 0.32812-0.17188 0.49219-0.26953 4.4023-2.5469 8.9414-8.5977 13.785-18.41 0.61328 0.55859 1.2383 1.1797 1.8633 1.8516l0.53906-0.73828c-0.66406-0.71875-1.3281-1.375-1.9844-1.9727 0.65625-1.3555 1.3203-2.7734 1.9844-4.2617" fill="#e3f2ff"/>
<g clip-path="url(#al)">
<g clip-path="url(#be)">
<g clip-path="url(#bd)">
<g clip-path="url(#av)">
<path d="m352.41 517.75 122.08-35.734-31.945-109.22-122.07 35.734z" fill="url(#ba)"/>
</g>
</g>
</g>
</g>
<g clip-path="url(#j)">
<g clip-path="url(#bo)">
<g clip-path="url(#c)">
<g clip-path="url(#f)">
<path d="m307.86 528.64 172.73-50.559-39.793-136.07-172.73 50.562z" fill="url(#l)"/>
</g>
</g>
</g>
</g>
<path d="m435.52 332.57c-1.4336-0.31641-17.723-3.2891-29.887 2.7969-0.17969-3.0352-0.32422-6.0039-0.50781-8.8516 0.089844-0.51562-53.246-0.26172-55.598 0.26953-5.1602 2.1719 7.6406 9.957 6.5898 15.234-0.41406 1.8242-2.0312 3.0586-3.8281 3.0586-0.28125 0-0.57812-0.03125-0.87109-0.097657l-2.6719-0.60547c-2.2734-0.42969-3.8164 2.5234-0.62109 3.7227l2.7852 0.63281c2.1172 0.47656 3.4414 2.5781 2.9609 4.6992-0.41016 1.8242-2.0273 3.0586-3.8203 3.0586-0.28906 0-0.58203-0.03125-0.87109-0.09375l-2.9141-0.66406c-2.875-0.47266-3.9844 2.5156-1.2617 3.7969l2.2148 0.50391c2.1172 0.48438 3.4453 2.5859 2.9609 4.6992-0.41406 1.8281-2.0352 3.0625-3.8281 3.0625-0.28125 0-0.57422-0.027343-0.86719-0.09375l-3.625-0.82812c-3.25-0.86328-4.7812 2.3555-1.8594 3.7461 2.4023 0.92578 3.7422 2.2188 4.207 3.4883 0.78906 2.7344-1.1992 4.707-5.0391 4.2031-0.875-0.066407-1.8477-0.25391-2.9023-0.60938-3.5781-1.457-3.5234 4.4609-5.0547 7.7227-14.969 13.074-28.754 30.199-33.262 45.867 18.109 4.1914 29.055 16.672 33.898 38.742l123.06-86.625c1.9414-17.086-0.69141-46.504-19.387-50.836" fill="#e6e7e8"/>
<path d="m427.19 455.07c2.5312-2.5508 4.9062-5.1523 7.1055-7.7969 0.76562 0.95703 1.2031 1.543 1.2031 1.543-3.6367 4.2773-6.3242 5.9531-8.3086 6.2539" fill="#3e83a3"/>
<g clip-path="url(#at)">
<g clip-path="url(#bb)">
<g clip-path="url(#w)">
<g clip-path="url(#bi)">
<path d="m410.24 462.16 30.289-8.8672-8.293-28.355-30.289 8.8672z" fill="url(#bm)"/>
</g>
</g>
</g>
</g>
<g clip-path="url(#ae)">
<g clip-path="url(#az)">
<g clip-path="url(#u)">
<g clip-path="url(#br)">
<path d="m405.77 300.12-139.55 113.46 113.76 140.05 139.55-113.46z" fill="url(#p)"/>
</g>
</g>
</g>
</g>
<path d="m340.38 372.14c-1.4414 0-2.6133 1.168-2.6133 2.6133s1.1719 2.6172 2.6133 2.6172c1.4492 0 2.6172-1.1719 2.6172-2.6172s-1.168-2.6133-2.6172-2.6133" fill="#d7df23"/>
<path d="m346.01 361.23c-1.4414 0-2.6133 1.1758-2.6133 2.6211 0 1.4414 1.1719 2.6133 2.6133 2.6133 1.4453 0 2.6172-1.1719 2.6172-2.6133 0-1.4453-1.1719-2.6211-2.6172-2.6211" fill="#d7df23"/>
<path d="m349.87 349.89c-1.4453 0-2.6133 1.1719-2.6133 2.6133 0 1.4453 1.168 2.6172 2.6133 2.6172 1.4414 0 2.6172-1.1719 2.6172-2.6172 0-1.4414-1.1758-2.6133-2.6172-2.6133" fill="#d7df23"/>
<path d="m351.97 338.3c-1.4414 0-2.6094 1.1719-2.6094 2.6133 0 1.4453 1.168 2.6211 2.6094 2.6211 1.4453 0 2.6133-1.1758 2.6133-2.6211 0-1.4414-1.168-2.6133-2.6133-2.6133" fill="#d7df23"/>
<g clip-path="url(#k)">
<g clip-path="url(#t)">
<g clip-path="url(#x)">
<g clip-path="url(#bl)">
<path d="m303.64 475.91 143.41 32.941 32.348-140.96-143.41-32.941z" fill="url(#ad)"/>
</g>
</g>
</g>
</g>
<path d="m356.12 340.7c-0.16797-0.85937-0.60938-1.8203-1.2734-2.9219 0.63672 0.99609 1.1094 1.9883 1.2734 2.9219" fill="#56b2dc"/>
<path d="m386.42 381.25c-16.059 0-21.516-24.801-31.004-37.715 0.70703-0.83594 0.92188-1.7578 0.70703-2.8398-0.16406-0.93359-0.63672-1.9258-1.2734-2.9219-0.52344-0.85938-1.1914-1.8125-1.9766-2.8633 0.60547 0.34375 1.1797 0.66406 1.7188 0.95703 3.3828 2.3789 5.9141 5.6328 7.293 7.2422v-0.007813c9.7383 13.09 11.859 32.031 26.199 33.258 1.0703 0.15234 2.1328 0.22656 3.1875 0.22656 6.6875 0 13.145-2.9844 18.977-8.207-10.031 9.2617-17.703 12.871-23.828 12.871" fill="#cfd1d3"/>
<g clip-path="url(#as)">
<g clip-path="url(#bf)">
<g clip-path="url(#v)">
<g clip-path="url(#bh)">
<path d="m432.89 224.37-127.2 20.094 23.504 148.93 127.2-20.094z" fill="url(#h)"/>
</g>
</g>
</g>
</g>
<path d="m329.62 273.1s40.02 5.5234 32.266 70.012c-1.3789-1.6094-3.9102-4.8633-7.293-7.2422-8.0898-4.4922-25.285-13.91-28.445-40.832 0 0-1.2891-9.1133 3.4727-21.938" fill="#a7a9ac"/>
<path d="m361.88 343.11c0.47266-41.047-13.684-61.332-32.266-70.012 0 0 33.258 4.5859 33.262 54.262 0 4.8086-0.30859 10.047-0.99609 15.742v0.007813" fill="#6d7074"/>
<path d="m435.52 303.7c-4.0586 2.9414-8.8945 5.6562-13.902 7.8984-9.4961 4.2656-33.406 7.0938-42.09 5.1914-8.6797-1.8984-10.043-14.387 0-13.586 10.039 0.79688 26.047-2.4297 40.16-7.8203 6.8164-2.6055 11.266-5.8672 14.043-8.5508 1.2344 5.3945 1.8867 11.062 1.7891 16.867" fill="#00435c"/>
<g clip-path="url(#aw)">
<g clip-path="url(#ao)">
<g clip-path="url(#ax)">
<g clip-path="url(#bc)">
<path d="m404.04 313.36 10.82-2.7266-3.9258-11.207-10.816 2.7266z" fill="url(#ah)"/>
</g>
</g>
</g>
</g>
<g clip-path="url(#ak)">
<g clip-path="url(#bp)">
<g clip-path="url(#y)">
<g clip-path="url(#af)">
<path d="m424.74 306.32 10.695-2.6953-3.9102-11.172-10.695 2.6953z" fill="url(#s)"/>
</g>
</g>
</g>
</g>
<path d="m578.06 693.2c-6.75-2.3867-31.32-8.8242-35.57-5.2695-3.2188 6.7539 19.797 16.934 28.199 18.852 9.2656 3.5547 12.621-10.973 7.3711-13.582" fill="#8b5e3c"/>
<path d="m573.59 702.38c-1.9805-0.59766-6.7422-3.7148-8.6992-6.5117-1.2734-2.3438 2.0625-3.5938 5.8984-3.4609h2.8008v9.9727" fill="#262262"/>
<g clip-path="url(#o)">
<path d="m538.76 715.09c-6.75-2.3867-31.32-8.8242-35.57-5.2695-3.2227 6.7539 19.793 16.934 28.199 18.852 9.2656 3.5547 12.621-10.973 7.3711-13.582" fill="#8b5e3c"/>
</g>
<path d="m534.3 724.27c-1.9805-0.59766-6.7461-3.707-8.6992-6.5117-1.2734-2.3438 2.0625-3.5938 5.8906-3.4609h2.8086v9.9727" fill="#29296d"/>
<g clip-path="url(#au)">
<path d="m573.02 534.94-27.746 14.086c0.35938 25.992 2.0508 40.105 7.7773 65.008 7.4961 27.984 13.715 56.094 17.852 84.422 1.6602 7.168 10.328 5.4453 9.2852-6.7344 0.33203-32.406 3.4297-42.84-1.2891-63.859-1.3086-6.8828-4.1953-18.715-4.5586-26.652 0.8125-13.266 1.5039-23.98 1.7969-33.039 1.5078-20.742-0.15625-21.578-3.1172-33.23" fill="#262262"/>
</g>
<path d="m554.19 618.32c-0.3125-1.1328-0.61328-2.2578-0.90625-3.418 0.30469 1.1406 0.60547 2.2773 0.90625 3.418m-1.3789-5.3477c-0.5625-2.3242-1.1133-4.8516-1.7266-7.8359 0.52734 2.5039 1.0977 5.1055 1.7266 7.8359" fill="#bcbec0"/>
<path d="m554.19 618.32c-0.30078-1.1406-0.60156-2.2773-0.90625-3.418-0.16016-0.63281-0.32031-1.2734-0.47266-1.9297-0.62891-2.7305-1.1992-5.332-1.7266-7.8359-0.10938-0.52734-0.21875-1.0703-0.33203-1.6328 1.6016-5.0039 6.9688-22.031 8.9805-26.188-2.5664 9.9648-4.5352 31.215-5.543 41.004" fill="#1c194a"/>
<path d="m558.6 542.1-35.988 17.492c-2.3359 25.887-2.9648 49.199 0.16016 74.562 4.5508 28.609 7.832 57.219 9.0156 85.82 0.90625 7.2969 9.707 6.4805 9.9336-5.7461 3.6797-32.195 7.8398-42.254 5.3242-63.645-0.58984-6.9805-2.2383-19.055-1.7773-26.98 3.707-12.844 7.9219-26.059 9.7383-32.777 8.8789-20.242 8.5391-37.871 3.5938-48.727" fill="#29296d"/>
<path d="m575.86 449.19c-0.36328-5.9844-5.7578-10.938-8.5195-11.375-3.7109-0.25391-8.8945 3.2969-8.5742 6.7773 0.042969 0.18359 3.5312 26.902 6.4883 42.629 0.32422 1.2383-0.65625 1.1719-1.2852 0.78906l-25.617-27.344c-5.6211-5.4766-13.004-1.8828-7.8633 6.4609l35.316 39.91c2.4844 3.1094 11.527 5.0078 12.516-1.4453l0.027344 0.019531c0.57031-18.031-2.418-56.129-2.4883-56.422" fill="#efeddc"/>
<path d="m556.39 541.09c-4.3047 2.4883-7.793 8.5312-7.793 13.504s3.4883 6.9922 7.793 4.5c4.3047-2.4844 7.793-8.5273 7.793-13.504s-3.4883-6.9844-7.793-4.5" fill="#ffc6b0"/>
<path d="m570.49 499.86c0.74609-7.8984 2.1953-21.84 3.4336-34.77 1.1055-6.6211 1.7148-30.34-9.7422-27.082-17.922 7.7148-50.125 26.301-51.723 34.273-0.19141 0.63672 8.2461 35.945 10.504 46.594 1.6758 15.137-1.9805 32.32-2.2891 47.988 1.1133 15.109 56.359-9.2188 53.809-29.688-2.7227-8.9805-5.8516-23.922-3.9922-37.316" fill="#f9f7e2"/>
<path d="m556.06 429.77c-0.57812 2.1523-4.9453 7.8711-1.2578 12.629 8.6523 6.3789-24.484 19.363-25.883 14.77 0 0 5.6133-6.1797 3.375-15.34l7.4727-8.5469 16.293-3.5117" fill="#ffc6b0"/>
<path d="m522.45 411.84c-0.47266 2.2109-0.60547 3.9219 0 4.5977 1.0039 0.89844 1.3398 1.6758 1.3477 2.3945-0.64062 1.1953-0.91406 1.7344-1.3789 2.3047l1.1797 10.547c0.5 2.1953 1.4062 8.2227 4.3945 9.0312l4.3008 1.1133c4.9727-0.47656 7.6797-5.7305 9.0078-8.5273l9.8477 1.0625c5.2109-1.6055 7.8945-13.137 5.9258-22.938-2.4102-15.938-35.043-16.047-34.625 0.41406" fill="#ffc6b0"/>
<path d="m562.56 409.08c-1.2109-5.8633-6.6133-10.27-10.633-12.344-8.5195-4.1211-16.668-2.8125-22.496 0.46484l0.007812-0.011719-0.31641 0.19141c-0.30859 0.17969-0.61719 0.36328-0.91016 0.55078-7.1211 4.3516-10.262 5.1133-13.434 4.4805-1.2422 4.3281 5.6172 8.9688 7.8125 9.6953l0.015625-0.027344c1.5 0.81641 4.457-1.3047 5.918-1.8359 2.2812-0.69531 3.4414-0.44922 4.043 1.5195 0.58594 1.8008 0.74219 3.1797 0.96875 4.4961 0.26953 1.2539 0.28125 5.7148 0.54297 8.1289 0.19141 0.19531 0.53906 0.78516 2.25 0.47656 1.8672-7.1992 6.9336-6.5391 7.8984 0.75391 0.65625 4.4258 3.1328 16.148 8.1211 13.973 2.5586-0.55078 11.633-23.023 10.211-30.512" fill="#a0755d"/>
<path d="m562.24 415.37c-1.7031 2.6406-16.82 3.7461-28.898-0.32422 0.12109 1.9023 0.59375 7.5664 0.78906 9.3438 0.1875 0.19531 0.54297 0.78516 2.2539 0.47656 1.8594-7.1992 6.9258-6.5391 7.8945 0.75391 0.65234 4.4258 3.1367 16.148 8.1172 13.973 0.88281-0.1875 2.5352-2.9766 4.2656-6.8555 1.9414-3.9805 4.8906-13.023 5.5781-17.367" fill="#bf9066"/>
<path d="m534.08 424.39c-0.28125 2.3281-1.9531 9.5352-4.5938 10.648-2.7812 1.4297-5.4961-5.7695-6.2344-6.5859-0.98438 5.2188-5.7969 17.352 0.27734 20.074 1.3164 0.72656 6.8047 2.9062 9.0547 0.45703 0.74219-4.4727-0.21094-6.8438-0.13672-7.5859 2.1875-4.9805 3.4062-11.809 3.8828-16.531-0.90625 0.13672-1.6133-0.10156-2.25-0.47656" fill="#a0755d"/>
<path d="m522.87 420.41c-0.61719 1.0586-1.3203 2.0781-2.1836 3.0234-0.75391 0.59766-2.9023 1.957 2.6406 4.9297l-0.45703-7.9531" fill="#ffc6b0"/>
<path d="m521.53 553.42c0.66406-7.1992 2.0469-20.695 1.7969-29.695 0.39844 9.543-0.87109 19.719-1.7969 29.695m1.4727-34.172c-0.019531-0.09375-6.4023-28.172-7.9453-34.965 2.6211 11.445 6.4883 27.898 7.9062 34.598 0.015624 0.125 0.03125 0.24219 0.039062 0.36719" fill="#e6e7e8"/>
<path d="m521.53 553.42c0.92578-9.9766 2.1953-20.152 1.7969-29.695-0.046875-1.668-0.14844-3.1875-0.32422-4.4766-0.007812-0.125-0.023438-0.24219-0.039062-0.36719-1.418-6.6992-5.2852-23.152-7.9062-34.598-0.12109-0.52734-0.21484-0.92578-0.26953-1.1758l11.516-5.5781c3.2891 5.4492 9.7773 47.062-4.7734 75.891" fill="#e1e0ce"/>
<path d="m527.47 482.85c0-4.8359-3.3945-10.719-7.5781-13.137-4.125-2.2891-7.1328-0.41406-7.7266 3.7656-0.39062 0.085937-3.4688 25.047-3.4453 41.207 0.32422 1.6562-14.312-18.051-21.309-28.492-4.2383-6.6016-11.316-5.3633-8.1797 3.9219 8.6406 13.797 16.684 28.148 24.414 42.934 4.9297 7.4531 13.902 6.7266 15.703 0.93359 5.5352-16.84 8.8281-50.371 8.1211-51.133" fill="#fffce9"/>
<path d="m487.14 482.46 0.16797-3.2305c-0.64453-5.168-3.1289-4.1328-2.8281-2.6289 0.16016 1.1914 0.17578 2.3398 0.070313 3.4648l-0.14844 0.92188-1.5195 0.54297-2.6172-0.32031-1.8164-1.6719-3.1992-5.4375-1.0625 4.1406-0.17578 4.2188 2.3984 5.2812 3.1133 2.8477c0.28516-2.4023 3.125-6.0469 8.0273-4.1875l-0.41016-3.9414" fill="#ffc6b0"/>
<g clip-path="url(#ac)">
<g clip-path="url(#an)">
<g clip-path="url(#bg)">
<path d="m500.42 421.26v1.1914h3.1953v-1.1914z" fill="#fff"/>
</g>
</g>
</g>
<g clip-path="url(#z)">
<g clip-path="url(#ar)">
<g clip-path="url(#am)">
<path d="m487.62 425.06v14.75h4.1602v-14.75z" fill="#d7e2e8"/>
</g>
</g>
</g>
<g clip-path="url(#g)">
<g clip-path="url(#i)">
<g clip-path="url(#bk)">
<path d="m491.78 421.41v6.6953h8.6406v-6.6953z" fill="#f9fcff"/>
</g>
</g>
</g>
<g clip-path="url(#a)">
<g clip-path="url(#bq)">
<g clip-path="url(#ab)">
<path d="m475.24 416.34v24.973h10.055v-24.973z" fill="#dff3fc"/>
</g>
</g>
</g>
<g clip-path="url(#aj)">
<g clip-path="url(#q)">
<g clip-path="url(#bj)">
<path d="m485.3 413.89v6.082h6.4844v-6.082z" fill="#d7e2e8"/>
</g>
</g>
</g>
<g clip-path="url(#m)">
<g clip-path="url(#aa)">
<g clip-path="url(#ay)">
<path d="m491.78 413.11v3.0703h7.7812v-3.0703z" fill="#f9fcff"/>
</g>
</g>
</g>
<g clip-path="url(#r)">
<g clip-path="url(#n)">
<g clip-path="url(#d)">
<path d="m460.82 400.93v39.504h24.48v-39.504z" fill="#dff3fc"/>
</g>
</g>
</g>
<g clip-path="url(#ap)">
<g clip-path="url(#ag)">
<g clip-path="url(#e)">
<path d="m485.3 400.03v4.0039h6.4844v-4.0039z" fill="#d7e2e8"/>
</g>
</g>
</g>
<g clip-path="url(#aq)">
<g clip-path="url(#bn)">
<g clip-path="url(#ai)">
<path d="m491.78 399.98v1.4219h3.8984v-1.4219z" fill="#f9fcff"/>
</g>
</g>
</g>
</svg>
